<svg width="104" height="32" viewBox="0 0 104 32" fill="none" xmlns="http://www.w3.org/2000/svg">
<path d="M1.625 5.3279V6.12695H1.62517C2.00349 5.85331 2.54006 5.67271 3.31782 5.65866L29.1793 5.70207C30.2957 5.63998 31.1606 5.17435 31.1606 4.60802C31.1606 4.23153 30.8075 3.92176 30.3525 3.87835L30.3535 3.87444L4.22803 2.65139C1.93112 2.68982 1.625 4.08866 1.625 5.3279Z" fill="url(#paint0_linear_500_7468)"/>
<path d="M1.46484 4.77284V5.36719C1.46484 4.1439 1.77184 2.76382 4.07536 2.7259L30.2761 3.93285L30.2754 3.93671C30.5846 3.97956 30.9708 4.17709 31.0026 4.5207H31.7378C31.7334 4.37883 31.7114 4.22871 31.6541 4.10457C31.5791 3.91512 31.4386 3.75867 31.1922 3.61996C31.0583 3.53287 30.9074 3.46598 30.7416 3.42313C30.5753 3.37011 30.4205 3.33763 30.3134 3.33763L4.07536 2.13172C1.77184 2.16947 1.6298 3.76675 1.46484 4.77284Z" fill="url(#paint1_linear_500_7468)"/>
<path d="M26.5562 23.3516L1.33398 17.31L5.50214 -0.00094986L30.7244 6.03864" fill="#0994DD"/>
<path d="M30.3359 6.32614L5.62215 0.398687L1.5957 17.1555L26.3084 23.084" fill="#80D6F7"/>
<path d="M3.02734 15.642L25.479 21.0254L28.8492 7.00932L6.39633 1.62434L3.02734 15.642Z" fill="url(#paint2_linear_500_7468)"/>
<path d="M6.41811 4.33442L4.32003 13.0891C4.30702 13.1421 4.30078 13.195 4.30078 13.2465C4.30026 13.4946 4.44089 13.712 4.6552 13.7633L24.7165 18.5864C24.9752 18.6485 25.2483 18.4472 25.3214 18.1388L27.4204 9.3843C27.433 9.3313 27.4393 9.27847 27.4395 9.2269C27.4396 8.97884 27.2987 8.76201 27.0836 8.70972L7.02395 3.88792C6.99222 3.87953 6.95962 3.8765 6.92771 3.8765C6.69987 3.8765 6.48261 4.06584 6.41811 4.33442Z" fill="url(#paint3_linear_500_7468)"/>
<path d="M7.66813 2.40418L8.12433 2.52282L7.85123 3.61754L7.2662 3.46542L7.23828 3.57314L9.24151 4.09375L9.26787 3.98512L8.72254 3.84391L9.06621 2.46004L8.84842 2.40418C8.71612 2.42165 8.54481 2.4191 8.33153 2.39417C8.11965 2.3667 7.90967 2.32648 7.70003 2.27298L7.66813 2.40418Z" fill="url(#paint4_linear_500_7468)"/>
<path fill-rule="evenodd" clip-rule="evenodd" d="M9.31184 4.00087L9.3297 3.93059L8.87003 3.81459L9.19809 2.52944L9.10914 2.50738L9.12648 2.4403L8.84142 2.36842C8.70201 2.38639 8.52688 2.3807 8.3143 2.35615C8.10397 2.32928 7.88376 2.28836 7.65505 2.22946L7.60893 2.40846L7.69806 2.43052L7.68054 2.49991L8.05143 2.59492L7.80955 3.54574L7.22278 3.397L7.18359 3.55304L7.26977 3.57439L7.25226 3.64467L9.36039 4.17969L9.40131 4.02294L9.31184 4.00087ZM9.26906 3.94209L9.24288 4.04831L7.23965 3.53927L7.26739 3.43376L7.8526 3.58251L8.12569 2.5123L7.66949 2.39629L7.70122 2.26801C7.91086 2.32032 8.12084 2.35946 8.33273 2.3865C8.54618 2.41088 8.71732 2.41337 8.85048 2.39629L9.06861 2.4502L8.72373 3.80313L9.26906 3.94209Z" fill="#FFFFF7"/>
<path fill-rule="evenodd" clip-rule="evenodd" d="M9.82023 3.13763C9.91559 3.05957 10.0293 3.00718 10.1674 2.97994C10.2483 2.96485 10.3365 2.95774 10.4316 2.95774C10.4978 2.95774 10.5682 2.96104 10.6408 2.96815C10.8201 2.98879 11.0149 3.02383 11.2227 3.07501C11.4352 3.1274 11.6258 3.18569 11.7947 3.24935C11.9618 3.31614 12.1017 3.39368 12.2133 3.47886C12.3241 3.56612 12.3982 3.66604 12.4416 3.77741C12.4652 3.83882 12.477 3.90405 12.4768 3.97379C12.4765 4.03155 12.468 4.09244 12.4517 4.15663C12.4133 4.29975 12.3464 4.40921 12.2527 4.4871C12.1598 4.56534 12.0452 4.6186 11.9045 4.64184C11.8578 4.65104 11.8086 4.65728 11.7572 4.66145C11.6546 4.66925 11.5431 4.66717 11.4229 4.65433C11.2427 4.63386 11.0457 4.59865 10.8331 4.54695C10.6257 4.49526 10.4373 4.43697 10.2692 4.37486C10.1028 4.30703 9.96785 4.23001 9.85982 4.1431C9.75055 4.05948 9.67613 3.95887 9.63355 3.8475C9.60962 3.78626 9.59748 3.72103 9.59766 3.65078C9.59783 3.59249 9.60646 3.5309 9.62352 3.46602C9.66188 3.32586 9.72786 3.21674 9.82023 3.13763ZM10.7244 4.36055C10.7705 4.38518 10.8175 4.40531 10.8668 4.41728C10.9152 4.42994 10.9644 4.4348 11.0137 4.4348H11.0307C11.0825 4.43324 11.1363 4.41554 11.1884 4.3805C11.2348 4.34945 11.2827 4.29376 11.3283 4.22038C11.3707 4.14475 11.4096 4.04465 11.4444 3.91142C11.4782 3.78582 11.4949 3.68278 11.4949 3.60003C11.4949 3.59465 11.4947 3.5891 11.4944 3.5839C11.491 3.49629 11.4776 3.4302 11.4498 3.37607C11.4233 3.32403 11.3867 3.28604 11.3408 3.26054C11.2941 3.23435 11.2431 3.21578 11.1891 3.20243C11.139 3.19132 11.0881 3.18473 11.0355 3.18577C10.9871 3.18803 10.9354 3.20468 10.8852 3.23903C10.8384 3.27494 10.7932 3.32663 10.7494 3.40244C10.7035 3.47565 10.6657 3.57922 10.6291 3.71227C10.5985 3.83197 10.581 3.93085 10.5803 4.0136C10.5803 4.01949 10.5805 4.02522 10.5807 4.03084C10.5807 4.0335 10.5808 4.03614 10.5809 4.03875C10.5823 4.12341 10.5958 4.19176 10.6203 4.24189C10.6461 4.29532 10.6817 4.33522 10.7244 4.36055Z" fill="url(#paint5_linear_500_7468)"/>
<path fill-rule="evenodd" clip-rule="evenodd" d="M13.1799 3.93368C13.273 3.8518 13.3893 3.79593 13.526 3.76809C13.6073 3.75262 13.6969 3.74407 13.7947 3.74407C13.8594 3.74407 13.9281 3.74717 14.0002 3.75499C14.1777 3.77592 14.3714 3.81249 14.5806 3.86672C14.7935 3.92113 14.9809 3.98227 15.1528 4.04905C15.3184 4.1202 15.4582 4.20008 15.5684 4.28961C15.6798 4.38059 15.7574 4.48686 15.7999 4.60387C15.8233 4.66828 15.8353 4.7367 15.8353 4.80967C15.8353 4.87009 15.8268 4.93378 15.8101 5.00074C15.7718 5.15214 15.707 5.26641 15.6111 5.34848C15.5198 5.43037 15.4009 5.48532 15.2612 5.51043C15.138 5.53518 15.0001 5.54082 14.8484 5.52972C14.8419 5.52936 14.8349 5.52881 14.8282 5.52826L14.8141 5.52699L14.8132 5.52692C14.8085 5.52658 14.8036 5.52622 14.7988 5.52553L14.7807 5.5239C14.5979 5.50206 14.4038 5.46458 14.1932 5.40926C13.9814 5.35594 13.7929 5.29571 13.6275 5.22893C13.4593 5.15851 13.3235 5.07917 13.2179 4.98727C13.1106 4.89884 13.0346 4.79603 12.9915 4.6772C12.967 4.61515 12.9549 4.54873 12.9551 4.4774C12.9551 4.41444 12.9646 4.34766 12.9836 4.27633C13.0191 4.12911 13.0839 4.01557 13.1799 3.93368ZM14.0847 5.21573C14.1274 5.24084 14.1735 5.26359 14.226 5.27578C14.2738 5.28833 14.3208 5.29343 14.3683 5.29343H14.3885C14.4427 5.29179 14.4944 5.27268 14.546 5.23502C14.5963 5.20317 14.6422 5.14567 14.6843 5.06943C14.7277 4.98863 14.7691 4.88309 14.8045 4.74352C14.8368 4.61796 14.8516 4.51097 14.8518 4.42635C14.8518 4.41762 14.8518 4.40925 14.8514 4.40088C14.8507 4.30898 14.8368 4.23874 14.8097 4.18361C14.7826 4.12793 14.7473 4.08844 14.6978 4.06005C14.6535 4.03512 14.6025 4.01583 14.5476 4.00091C14.5432 3.99964 14.539 3.99855 14.5346 3.99764C14.5341 3.99753 14.5337 3.99743 14.5334 3.99734C14.5325 3.99714 14.5318 3.99698 14.5312 3.99673L14.527 3.99582C14.5256 3.99545 14.5242 3.99527 14.5228 3.99509L14.5228 3.99509L14.5171 3.99363L14.5145 3.99309C14.4746 3.9849 14.4353 3.98126 14.3957 3.98308C14.3424 3.98581 14.2947 4.00401 14.2455 4.0384C14.1962 4.07497 14.1519 4.13102 14.1058 4.21054C14.0648 4.28751 14.0248 4.39524 13.9895 4.53462C13.955 4.67074 13.9379 4.77955 13.9378 4.86872V4.87727C13.9427 4.96589 13.9522 5.03849 13.9798 5.09126C14.0064 5.14749 14.0394 5.18916 14.0847 5.21573Z" fill="url(#paint6_linear_500_7468)"/>
<path fill-rule="evenodd" clip-rule="evenodd" d="M14.0708 5.13913C14.1127 5.16386 14.1592 5.18592 14.21 5.19802C14.2641 5.21208 14.3166 5.21599 14.3694 5.21457C14.4235 5.21368 14.4744 5.19482 14.5252 5.15888C14.5748 5.12703 14.6203 5.07081 14.6617 4.99626C14.7045 4.91708 14.7444 4.81495 14.7803 4.6776C14.8153 4.54202 14.8295 4.42832 14.8263 4.34256C14.8256 4.25289 14.812 4.18332 14.7852 4.1303C14.7586 4.0755 14.7229 4.03636 14.6759 4.0102C14.6312 3.98476 14.5811 3.9659 14.5278 3.9522C14.476 3.93814 14.4267 3.93174 14.3772 3.93423C14.3248 3.93654 14.2778 3.95469 14.2291 3.98814C14.1805 4.0239 14.1368 4.0787 14.0914 4.15646C14.051 4.23154 14.0118 4.33705 13.9768 4.47441C13.9418 4.61052 13.9249 4.71941 13.9258 4.80837C13.9308 4.89502 13.9402 4.96601 13.9674 5.01743C13.9936 5.07241 14.026 5.11226 14.0708 5.13913ZM14.3309 4.10689C14.3741 4.07237 14.4162 4.056 14.4587 4.0528C14.5047 4.0528 14.5477 4.05689 14.5931 4.06846C14.6165 4.07343 14.6366 4.08099 14.6582 4.08912C14.6645 4.09145 14.6708 4.09383 14.6774 4.09621C14.7029 4.10831 14.727 4.12148 14.7467 4.13696C14.7713 4.18767 14.7793 4.25297 14.7793 4.33872C14.7778 4.42128 14.7609 4.52999 14.727 4.66326C14.6942 4.79884 14.6566 4.89741 14.617 4.97445C14.5778 5.04633 14.539 5.10273 14.4927 5.13529C14.4495 5.16874 14.4043 5.18671 14.3599 5.18849C14.3103 5.1892 14.2659 5.18529 14.218 5.17212C14.191 5.16571 14.1638 5.15593 14.1398 5.14685C14.1168 5.13796 14.097 5.12479 14.0797 5.11002C14.0573 5.0611 14.0446 4.99562 14.0469 4.90897C14.0469 4.82659 14.0667 4.7161 14.101 4.5791C14.1353 4.44495 14.1711 4.34122 14.2108 4.26524C14.2499 4.19265 14.291 4.14016 14.3309 4.10689Z" fill="#FFFFF7"/>
<path fill-rule="evenodd" clip-rule="evenodd" d="M14.5677 3.79451C14.3542 3.7422 14.1576 3.70377 13.9768 3.6833C13.7969 3.66462 13.6353 3.66782 13.4904 3.69807C13.3492 3.72583 13.2289 3.77832 13.1321 3.8598C13.0356 3.94325 12.9688 4.05997 12.9314 4.20711C12.8989 4.33379 12.8946 4.4482 12.9241 4.55033C12.953 4.65246 13.0038 4.74551 13.0787 4.83056C13.1725 4.96934 13.3201 5.08961 13.5212 5.19245C13.725 5.29067 13.9648 5.37554 14.2417 5.44493C14.4531 5.49973 14.6504 5.53638 14.8344 5.55773C15.0175 5.57819 15.1839 5.57303 15.328 5.54706C15.4737 5.51841 15.5931 5.4629 15.6909 5.38283C15.7882 5.30117 15.8558 5.18516 15.8935 5.03392C15.9243 4.91062 15.9285 4.79711 15.9013 4.69338C15.8751 4.59196 15.821 4.49962 15.7428 4.41297C15.6472 4.27188 15.4976 4.14911 15.2914 4.05107C15.0851 3.95055 14.8437 3.86479 14.5677 3.79451ZM13.9886 3.71024C14.1637 3.73141 14.3541 3.76664 14.5619 3.81966C14.7711 3.87286 14.9562 3.93175 15.1247 3.99776C15.2879 4.06733 15.425 4.14562 15.5341 4.23316C15.643 4.32212 15.7205 4.42585 15.7624 4.54043C15.8046 4.65555 15.8089 4.78383 15.7722 4.9283C15.7347 5.07634 15.6702 5.18825 15.5769 5.2676C15.4862 5.34927 15.3692 5.40229 15.2315 5.42685C15.0923 5.45389 14.9338 5.4587 14.7578 5.43984C14.5776 5.41795 14.3866 5.38183 14.1788 5.3281C13.9702 5.27561 13.7856 5.2169 13.6215 5.15142C13.4566 5.08292 13.3219 5.00517 13.2179 4.91549C13.1119 4.82884 13.0372 4.72832 12.9947 4.61231C12.9503 4.49791 12.9462 4.36873 12.986 4.22017C13.0219 4.07552 13.0857 3.96502 13.1797 3.88514C13.2721 3.80507 13.3857 3.75027 13.5211 3.72251C13.654 3.69796 13.8095 3.69156 13.9886 3.71024Z" fill="#FFFFF7"/>
<path d="M26.6051 23.0586L1.13672 18.1274L4.57583 0.617052L30.0434 5.54697" fill="#0994DD"/>
<path d="M29.7518 5.78589L4.75904 0.949026L1.42969 17.8954L26.4235 22.7305" fill="#80D6F7"/>
<path d="M28.1739 6.55574L5.55522 2.17899L2.78125 16.3006L25.3999 20.6777" fill="#0994DD"/>
<mask id="mask0_500_7468" style="mask-type:alpha" maskUnits="userSpaceOnUse" x="4" y="4" width="23" height="15">
<path fill-rule="evenodd" clip-rule="evenodd" d="M4.04492 18.4102L26.9518 18.4102V4.58044L4.04492 4.58044L4.04492 18.4102Z" fill="white"/>
</mask>
<g mask="url(#mask0_500_7468)">
<mask id="mask1_500_7468" style="mask-type:alpha" maskUnits="userSpaceOnUse" x="4" y="4" width="23" height="15">
<path fill-rule="evenodd" clip-rule="evenodd" d="M4.04492 4.57973L26.9515 4.57973V18.4102L4.04492 18.4102L4.04492 4.57973Z" fill="white"/>
</mask>
<g mask="url(#mask1_500_7468)">
<mask id="mask2_500_7468" style="mask-type:alpha" maskUnits="userSpaceOnUse" x="4" y="4" width="23" height="15">
<path fill-rule="evenodd" clip-rule="evenodd" d="M4.04297 18.4062L26.949 18.4062V4.57654L4.04297 4.57654L4.04297 18.4062Z" fill="white"/>
</mask>
<g mask="url(#mask2_500_7468)">
<path d="M26.9402 9.14406C27.0015 8.83368 26.8378 8.5389 26.5771 8.48835L6.37169 4.58411C6.11001 4.53268 5.84712 4.74604 5.78602 5.05394L4.05983 13.8393C3.99839 14.1481 4.16142 14.4427 4.42207 14.4934L24.6284 18.3986C24.8907 18.45 25.1529 18.2375 25.2133 17.928" fill="#5A74C2"/>
</g>
</g>
</g>
<path d="M31.033 4.42119C31.0352 4.43664 31.0394 4.45173 31.0394 4.46808C31.0394 5.03824 29.9457 5.61469 29.1342 5.66498L3.27081 5.62115C2.493 5.63534 1.95622 5.81767 1.57788 6.09395V6.09485C0.793828 6.66232 0.689589 7.62983 0.576172 8.32268L0.576172 8.93164C0.576172 8.07442 0.723873 7.14571 1.57788 6.6325C1.9725 6.38999 2.51759 6.27161 3.27255 6.25975L28.6382 6.29191C29.5532 6.2549 30.3636 6.01976 30.9327 5.6666C31.2849 5.44888 31.5419 5.18482 31.6707 4.89219C31.7303 4.75603 31.7668 4.61161 31.7668 4.46556C31.7668 4.44993 31.7661 4.43592 31.7661 4.42119H31.033Z" fill="url(#paint7_linear_500_7468)"/>
<path d="M30.9296 5.61807C30.4249 5.92994 29.7283 6.14771 28.9362 6.21881L3.26771 6.17551C2.51379 6.18763 1.96939 6.3359 1.57477 6.57631C0.720764 7.08545 0.573062 8.00681 0.573062 8.85723L0.5625 29.1966L0.5625 29.7988C0.570638 30.6594 1.27988 31.8582 2.47396 31.9557L29.9412 31.9863C30.8318 31.9557 31.6572 31.5303 31.7272 30.4767V29.8731L31.7382 6.99207L31.7542 4.57892C31.6293 5.02338 31.2818 5.40207 30.9296 5.61807Z" fill="url(#paint8_linear_500_7468)"/>
<mask id="mask3_500_7468" style="mask-type:alpha" maskUnits="userSpaceOnUse" x="1" y="5" width="31" height="27">
<path fill-rule="evenodd" clip-rule="evenodd" d="M1.05273 31.3809L31.8329 31.3809L31.8329 5.74932L1.05273 5.74932L1.05273 31.3809Z" fill="white"/>
</mask>
<g mask="url(#mask3_500_7468)">
<mask id="mask4_500_7468" style="mask-type:alpha" maskUnits="userSpaceOnUse" x="0" y="5" width="32" height="27">
<path fill-rule="evenodd" clip-rule="evenodd" d="M0.660156 5.58014L31.9837 5.58014L31.9837 31.8027L0.660156 31.8027L0.660156 5.58014Z" fill="white"/>
</mask>
<g mask="url(#mask4_500_7468)">
<g opacity="0.800003">
<path d="M31.2944 30.5988C31.1843 30.599 30.909 30.7781 30.7975 30.8301C30.6891 30.882 30.6156 30.9751 30.6152 31.0546C30.6151 31.0685 30.617 31.0822 30.6215 31.0948C30.6218 31.0955 30.6222 31.0964 30.6224 31.0971C30.6414 31.1455 30.6936 31.172 30.7593 31.1735C30.7614 31.1738 30.7637 31.1738 30.7658 31.1738C30.7671 31.1738 30.7685 31.1738 30.7701 31.1735C30.807 31.1731 30.8472 31.1651 30.8883 31.1491C30.8929 31.1475 30.897 31.1455 30.9013 31.1438C30.9026 31.1432 30.9033 31.1429 30.9043 31.1423C30.9071 31.1413 30.9098 31.1398 30.9126 31.1384L31.2344 30.9418C31.3119 30.8808 31.3591 30.7746 31.3589 30.6947C31.3589 30.6594 31.3497 30.6294 31.3302 30.6102C31.3262 30.6064 31.3211 30.6034 31.3152 30.6014C31.3092 30.5997 31.3022 30.5988 31.2946 30.5988H31.2944Z" fill="url(#paint9_linear_500_7468)"/>
<path d="M29.5739 31.0524H29.5702H29.5671C29.4282 31.0537 29.3151 31.1252 29.3145 31.2134C29.3145 31.3033 29.4313 31.3796 29.573 31.3809L29.8893 31.3729C30.029 31.3729 30.1403 31.3013 30.1403 31.2147C30.1403 31.2127 30.1403 31.2104 30.14 31.2085C30.1344 31.1177 30.0132 31.0444 29.8707 31.0444L29.5739 31.0524Z" fill="url(#paint10_linear_500_7468)"/>
<path d="M28.3453 31.0489H28.3434C28.2025 31.0489 28.0859 31.122 28.0859 31.2124C28.0859 31.3038 28.2019 31.377 28.3438 31.377H28.6519C28.7934 31.377 28.9113 31.3038 28.9113 31.2134C28.9113 31.1236 28.7943 31.0489 28.6519 31.0489H28.3453Z" fill="url(#paint11_linear_500_7468)"/>
<path d="M27.1133 31.0483H27.1079C27.0475 31.0483 26.9922 31.062 26.9485 31.0848C26.9036 31.1081 26.8712 31.1412 26.8589 31.1787C26.8554 31.1892 26.8537 31.2003 26.8535 31.2115C26.8528 31.3017 26.9692 31.377 27.1117 31.377H27.419C27.5624 31.377 27.6778 31.3038 27.6785 31.2115C27.6794 31.1216 27.5632 31.0483 27.4205 31.0483H27.1133Z" fill="url(#paint12_linear_500_7468)"/>
<path d="M25.8872 31.0487H25.8832C25.8298 31.0487 25.7801 31.0592 25.739 31.0773C25.6757 31.1053 25.6327 31.1506 25.6275 31.2017C25.6273 31.2037 25.6271 31.2056 25.6271 31.2076C25.627 31.2092 25.627 31.2106 25.627 31.212C25.6263 31.3019 25.7416 31.377 25.8851 31.377H26.1917H26.1936C26.1974 31.377 26.2012 31.377 26.2051 31.3768C26.342 31.373 26.4511 31.301 26.4518 31.2136V31.2115C26.4509 31.1215 26.3353 31.0487 26.1938 31.0487H25.8872Z" fill="url(#paint13_linear_500_7468)"/>
<path d="M24.6645 31.0505C24.5211 31.0505 24.4041 31.1238 24.4023 31.2149C24.4023 31.3047 24.5182 31.3789 24.6623 31.3789H24.9676C25.1103 31.3789 25.2272 31.3052 25.2272 31.2149V31.2129C25.2265 31.1248 25.1122 31.0505 24.9704 31.0505H24.6645Z" fill="url(#paint14_linear_500_7468)"/>
<path d="M23.4389 31.0485C23.2963 31.0485 23.1783 31.1236 23.1777 31.2127V31.2149C23.1784 31.3049 23.2941 31.377 23.4349 31.377H23.742C23.8847 31.377 24.0026 31.3036 24.0026 31.2143V31.2122C24.0022 31.1225 23.8867 31.0498 23.7453 31.0485H23.4389Z" fill="url(#paint15_linear_500_7468)"/>
<path d="M22.2038 31.0465C22.06 31.0465 21.943 31.1202 21.9414 31.211C21.9407 31.3004 22.0571 31.375 22.1987 31.375H22.5063C22.6476 31.375 22.7662 31.3004 22.7673 31.2115V31.2094C22.7671 31.1199 22.6515 31.0465 22.5091 31.0465H22.2038Z" fill="url(#paint16_linear_500_7468)"/>
<path d="M20.9781 31.0462C20.8356 31.0462 20.7192 31.1204 20.7168 31.2106C20.7165 31.3006 20.8318 31.375 20.9732 31.375H21.2807C21.4239 31.375 21.5413 31.3017 21.5413 31.2106V31.2085C21.5416 31.1191 21.426 31.0462 21.2855 31.0462H20.9781Z" fill="url(#paint17_linear_500_7468)"/>
<path d="M19.7516 31.0359C19.6788 31.0359 19.612 31.056 19.5643 31.0879C19.5626 31.0889 19.5609 31.0903 19.5591 31.0918C19.5298 31.1124 19.5088 31.1375 19.4986 31.1651C19.4986 31.1652 19.4984 31.1656 19.4984 31.1658C19.4979 31.1674 19.4972 31.1692 19.4967 31.1709C19.4939 31.1804 19.4924 31.1898 19.4922 31.1996V31.2017C19.4924 31.291 19.6077 31.3643 19.749 31.3643L20.0559 31.3652C20.1991 31.3652 20.3162 31.2921 20.3177 31.2008V31.1987C20.3175 31.1099 20.2029 31.0368 20.0621 31.0368L19.7533 31.0359H19.7516Z" fill="url(#paint18_linear_500_7468)"/>
<path d="M18.517 31.046C18.3762 31.046 18.2583 31.1204 18.2559 31.2102V31.2124C18.2562 31.3005 18.3713 31.3743 18.5121 31.3743L18.8192 31.375C18.9619 31.375 19.0793 31.3006 19.0809 31.2102V31.2083C19.0816 31.1191 18.9657 31.046 18.8251 31.046H18.517Z" fill="url(#paint19_linear_500_7468)"/>
<path d="M17.2969 31.0466C17.1539 31.0466 17.0349 31.1199 17.0332 31.2106V31.2127C17.0334 31.301 17.1483 31.3738 17.2888 31.3738L17.5964 31.375C17.7394 31.375 17.8575 31.3004 17.8593 31.2106C17.8598 31.1199 17.7453 31.0466 17.6028 31.0466H17.2969Z" fill="url(#paint20_linear_500_7468)"/>
<path d="M15.7969 31.1983V31.2003C15.7969 31.2886 15.911 31.3626 16.0526 31.3626L16.3601 31.3633C16.5026 31.3633 16.6195 31.2894 16.6217 31.1992V31.1971C16.6215 31.1072 16.5074 31.0347 16.3665 31.0347L16.0599 31.0343C15.917 31.0343 15.7984 31.108 15.7969 31.1983" fill="url(#paint21_linear_500_7468)"/>
<path d="M14.8357 31.0357C14.6924 31.0357 14.5747 31.108 14.5723 31.1992V31.2014C14.5726 31.2902 14.6871 31.3629 14.8285 31.3629L15.1349 31.3633H15.1368C15.1413 31.3633 15.1457 31.3633 15.15 31.3631C15.2867 31.3587 15.3957 31.2862 15.3978 31.1998V31.1976C15.3975 31.1069 15.2846 31.0357 15.142 31.0357H14.8357Z" fill="url(#paint22_linear_500_7468)"/>
<path d="M13.6094 31.0345C13.4653 31.0345 13.3474 31.1078 13.3457 31.1976V31.1999C13.3452 31.2898 13.4575 31.3617 13.6008 31.3633H13.9072C14.0497 31.3633 14.1674 31.2894 14.17 31.1996C14.1702 31.1985 14.1702 31.198 14.1702 31.1971C14.1705 31.1065 14.0565 31.0345 13.9144 31.0345H13.6094Z" fill="url(#paint23_linear_500_7468)"/>
<path d="M12.3722 31.0334H12.3691C12.2285 31.0334 12.1123 31.1073 12.1094 31.1971V31.1991C12.1085 31.288 12.2226 31.3613 12.3632 31.3613H12.6707C12.8141 31.3613 12.9318 31.2877 12.9344 31.198V31.1959C12.9349 31.1069 12.8201 31.0334 12.6793 31.0334H12.3722Z" fill="url(#paint24_linear_500_7468)"/>
<path d="M11.1393 31.0313C10.995 31.0313 10.8781 31.1037 10.875 31.1955V31.1975C10.8743 31.2862 10.9884 31.3594 11.1299 31.3594H11.437C11.5788 31.3594 11.6981 31.2857 11.7007 31.196V31.1939C11.7005 31.1044 11.5866 31.0313 11.4467 31.0313H11.1393Z" fill="url(#paint25_linear_500_7468)"/>
<path d="M9.91465 31.0331C9.77385 31.0331 9.65334 31.106 9.65039 31.1973V31.1994C9.6497 31.2887 9.76362 31.3613 9.90511 31.3613H10.2125C10.3551 31.3613 10.4738 31.2884 10.4754 31.1985C10.4756 31.1971 10.4756 31.1957 10.4756 31.1943C10.4756 31.1051 10.363 31.0331 10.2221 31.0331H9.91465Z" fill="url(#paint26_linear_500_7468)"/>
<path d="M8.424 31.1959C8.42383 31.1966 8.42383 31.1973 8.42383 31.198C8.42331 31.2875 8.53706 31.3608 8.67733 31.3608L8.98442 31.3613C9.12712 31.3613 9.24555 31.2864 9.24954 31.1973V31.1951C9.2504 31.1048 9.13631 31.0331 8.99482 31.0331L8.68722 31.0318C8.54573 31.0318 8.42712 31.1053 8.424 31.1959Z" fill="url(#paint27_linear_500_7468)"/>
<path d="M7.46382 31.0302C7.32198 31.0302 7.20252 31.103 7.19922 31.1943V31.1964C7.1987 31.2854 7.31227 31.3574 7.45255 31.3574H7.76033H7.76553H7.76882C7.90754 31.356 8.02285 31.2827 8.02441 31.1943V31.19C8.02389 31.1021 7.91153 31.0309 7.77073 31.0302H7.46382Z" fill="url(#paint28_linear_500_7468)"/>
<path d="M6.23209 31.0281C6.08974 31.0281 5.97009 31.1025 5.9668 31.1918V31.1939C5.96628 31.2834 6.07933 31.3564 6.22169 31.3564L6.52773 31.3574C6.66991 31.3574 6.78938 31.2836 6.79181 31.1927C6.79181 31.1914 6.79181 31.19 6.79181 31.1886C6.79164 31.1009 6.67893 31.0286 6.53865 31.0281H6.23209Z" fill="url(#paint29_linear_500_7468)"/>
<path d="M5.00553 31.0284C4.86283 31.0284 4.7444 31.1016 4.74024 31.1934V31.1975C4.73972 31.2847 4.85225 31.3569 4.99357 31.3569L5.29995 31.3574C5.44248 31.3574 5.56109 31.2836 5.56438 31.1934V31.1893C5.56473 31.1017 5.45219 31.029 5.31227 31.0284H5.00553Z" fill="url(#paint30_linear_500_7468)"/>
<path d="M3.77059 31.0192H3.76885C3.62528 31.0192 3.5072 31.0922 3.50408 31.1827C3.50391 31.184 3.50391 31.1852 3.50391 31.1868C3.50425 31.2742 3.61679 31.3457 3.75706 31.3457L4.06363 31.3477C4.20616 31.3477 4.32632 31.2731 4.32961 31.1833V31.179C4.33031 31.0902 4.21743 31.0192 4.07646 31.0192H3.77059Z" fill="url(#paint31_linear_500_7468)"/>
<path d="M2.31023 30.9438C2.30121 30.9597 2.29688 30.9769 2.29688 30.9947C2.29688 31.0645 2.36329 31.1422 2.46784 31.1856L2.8429 31.3025C2.84567 31.3031 2.84844 31.3036 2.85122 31.3041C2.86492 31.3066 2.87844 31.3084 2.89179 31.3095C2.90046 31.3102 2.90896 31.3105 2.91746 31.3105H2.91971H2.92457C3.02565 31.3091 3.10073 31.2629 3.10403 31.1917C3.1042 31.1908 3.1042 31.1901 3.10403 31.1894C3.10195 31.0976 2.75412 30.9499 2.62615 30.8971C2.57864 30.8778 2.52905 30.8688 2.48362 30.8688C2.40559 30.8688 2.33832 30.8955 2.31023 30.9438Z" fill="url(#paint32_linear_500_7468)"/>
<path d="M1.50922 30.0296C1.49674 30.0314 1.4846 30.0355 1.47367 30.0415C1.43223 30.0632 1.4116 30.1084 1.41212 30.1636C1.41281 30.2155 1.43206 30.276 1.47055 30.334L1.69597 30.6328C1.69805 30.6349 1.69995 30.6369 1.70169 30.6388C1.75579 30.6938 1.81838 30.7264 1.87317 30.7333C1.88011 30.734 1.88705 30.7344 1.89364 30.7344H1.89693C1.92918 30.7338 1.95744 30.7232 1.97808 30.7018C1.97929 30.7007 1.98033 30.6997 1.9812 30.6984C1.98866 30.6899 1.99195 30.6773 1.99212 30.6614C1.99247 30.5506 1.83035 30.2853 1.76203 30.1805C1.75631 30.1718 1.75024 30.1632 1.744 30.1551C1.68331 30.0762 1.60008 30.0278 1.53107 30.0278C1.52361 30.0278 1.51633 30.0284 1.50922 30.0296Z" fill="url(#paint33_linear_500_7468)"/>
<path d="M1.05664 29.1043L1.11958 29.4648C1.11976 29.4667 1.1201 29.4689 1.12028 29.4705C1.12166 29.4772 1.12288 29.4836 1.12444 29.49C1.12583 29.4966 1.12756 29.5034 1.12947 29.51C1.15461 29.5986 1.20836 29.6614 1.26714 29.6735C1.27442 29.6751 1.28136 29.6758 1.28847 29.6758H1.28986C1.29905 29.6758 1.30858 29.6742 1.31777 29.6715C1.38869 29.6486 1.43811 29.5516 1.43794 29.4413C1.43794 29.4208 1.43603 29.3998 1.43239 29.379C1.41071 29.2452 1.38384 29.1043 1.38384 29.1043C1.38384 29.1009 1.38401 29.0977 1.38401 29.0943C1.38366 28.9579 1.31188 28.8463 1.22275 28.8463C1.13311 28.8463 1.05716 28.9632 1.05664 29.1043Z" fill="url(#paint34_linear_500_7468)"/>
<path d="M1.05664 27.863V28.179C1.05664 28.3211 1.12999 28.4375 1.21965 28.4375H1.22086C1.22485 28.4375 1.22918 28.4371 1.23317 28.4368C1.31797 28.4265 1.38456 28.314 1.38456 28.179L1.38629 27.863C1.38629 27.7215 1.31225 27.6052 1.22138 27.6052C1.12999 27.6052 1.05664 27.7215 1.05664 27.863" fill="url(#paint35_linear_500_7468)"/>
<path d="M1.22177 26.3672C1.22021 26.3672 1.21882 26.3672 1.21726 26.3674C1.12986 26.3712 1.05859 26.4863 1.05859 26.6259V26.9409C1.05859 27.0834 1.13281 27.1992 1.22264 27.1992C1.3135 27.1992 1.38755 27.0834 1.38755 26.9409V26.6259C1.38755 26.4836 1.3135 26.3672 1.22264 26.3672H1.22177Z" fill="url(#paint36_linear_500_7468)"/>
<path d="M1.05859 25.3836V25.6978C1.05859 25.841 1.13281 25.957 1.22264 25.957C1.3135 25.957 1.38755 25.841 1.38755 25.6978V25.3836C1.38755 25.2405 1.3135 25.1242 1.22264 25.1242C1.13333 25.1242 1.06033 25.2405 1.05859 25.3836Z" fill="url(#paint37_linear_500_7468)"/>
<path d="M1.06836 24.1421V24.4586C1.06836 24.6003 1.14136 24.7168 1.23223 24.7168C1.32154 24.7168 1.39645 24.601 1.39645 24.4586V24.1433C1.39645 24.0008 1.32223 23.8852 1.23223 23.8839C1.14136 23.8839 1.06836 24.0008 1.06836 24.1421Z" fill="url(#paint38_linear_500_7468)"/>
<path d="M1.06836 22.9042V23.2196C1.06836 23.3627 1.14136 23.4785 1.23223 23.4785C1.32223 23.4785 1.39645 23.3627 1.39645 23.2196V22.9042V22.9008C1.39593 22.7611 1.3231 22.6464 1.23223 22.6464C1.1424 22.6464 1.06836 22.7631 1.06836 22.9042Z" fill="url(#paint39_linear_500_7468)"/>
<path d="M1.07031 21.6533V21.9696V21.9728C1.07083 22.1143 1.14453 22.2285 1.23366 22.2285C1.3254 22.2285 1.3991 22.1125 1.3991 21.9696V21.6551C1.3991 21.5115 1.32592 21.3951 1.2354 21.3951C1.14523 21.3951 1.07031 21.5104 1.07031 21.6533" fill="url(#paint40_linear_500_7468)"/>
<path d="M1.07031 20.4232V20.7393C1.07031 20.882 1.14523 20.998 1.2354 20.998C1.32592 20.998 1.3991 20.882 1.40014 20.7393V20.4239C1.40014 20.2821 1.32592 20.165 1.2354 20.165C1.14523 20.165 1.07031 20.2808 1.07031 20.4232Z" fill="url(#paint41_linear_500_7468)"/>
<path d="M1.06836 19.1758V19.4909C1.06836 19.6333 1.14223 19.75 1.2324 19.75C1.32379 19.75 1.39714 19.6333 1.39714 19.4909V19.1758C1.39714 19.0323 1.32379 18.9164 1.2331 18.9164C1.14223 18.9164 1.06836 19.0323 1.06836 19.1758Z" fill="url(#paint42_linear_500_7468)"/>
<path d="M1.07031 17.9319V18.2482C1.07031 18.3909 1.14453 18.5078 1.23436 18.5078C1.32505 18.5078 1.3984 18.3909 1.40014 18.2482V17.9326C1.40014 17.7913 1.32592 17.6744 1.23436 17.6744C1.14453 17.6744 1.07135 17.7904 1.07031 17.9319Z" fill="url(#paint43_linear_500_7468)"/>
<path d="M1.06836 16.6932V17.0092C1.06836 17.1517 1.14154 17.2676 1.2331 17.2676C1.32292 17.2676 1.39714 17.1517 1.39714 17.0092V16.6932C1.39714 16.5514 1.32292 16.4349 1.2331 16.4349C1.14154 16.4349 1.06836 16.5502 1.06836 16.6932Z" fill="url(#paint44_linear_500_7468)"/>
<path d="M1.06888 15.4555L1.06836 15.7708C1.06836 15.9138 1.14154 16.0293 1.2331 16.0293C1.32379 16.0293 1.39714 15.9138 1.39714 15.7708L1.3987 15.4555C1.3987 15.3142 1.32379 15.1973 1.23449 15.1973C1.14379 15.1973 1.06888 15.3142 1.06888 15.4555Z" fill="url(#paint45_linear_500_7468)"/>
<path d="M1.07031 14.2119V14.5272C1.07031 14.6702 1.14522 14.7871 1.23592 14.7871C1.32522 14.7871 1.40014 14.6702 1.40014 14.5272V14.2119C1.40014 14.0699 1.32592 13.953 1.23592 13.953C1.14522 13.953 1.07135 14.0699 1.07031 14.2119Z" fill="url(#paint46_linear_500_7468)"/>
<path d="M1.07031 12.9734V13.2878C1.07031 13.4302 1.14418 13.5469 1.23488 13.5469H1.23592C1.23817 13.5469 1.24025 13.5467 1.24216 13.5467C1.32904 13.5414 1.3991 13.427 1.39962 13.2878V12.9734C1.39962 12.8295 1.32592 12.7142 1.23488 12.7142C1.14418 12.7142 1.07031 12.8295 1.07031 12.9734Z" fill="url(#paint47_linear_500_7468)"/>
<path d="M1.07227 11.7312V12.0476V12.051C1.07279 12.1915 1.147 12.3066 1.23631 12.3066C1.32735 12.3066 1.40105 12.1897 1.40105 12.0476V11.7312C1.40105 11.59 1.32735 11.4724 1.23631 11.4724C1.14718 11.4724 1.07227 11.59 1.07227 11.7312Z" fill="url(#paint48_linear_500_7468)"/>
<path d="M1.07331 10.4928L1.07227 10.8081C1.07227 10.9504 1.14718 11.0664 1.23631 11.0664C1.32735 11.0664 1.40105 10.9504 1.40105 10.8081V10.4928C1.40105 10.3497 1.32787 10.233 1.23787 10.233C1.14718 10.233 1.07331 10.3497 1.07331 10.4928Z" fill="url(#paint49_linear_500_7468)"/>
<path d="M1.08327 9.22659L1.06836 9.55753C1.06992 9.69969 1.14535 9.81641 1.23605 9.81641C1.32605 9.81641 1.39922 9.69969 1.3987 9.55753L1.41067 9.25595C1.41102 9.25043 1.41119 9.24491 1.41119 9.2394C1.41154 9.10436 1.34287 8.99102 1.25616 8.98319C1.25339 8.98301 1.25027 8.98283 1.24749 8.98283C1.16113 8.98283 1.08865 9.08977 1.08327 9.22659Z" fill="url(#paint50_linear_500_7468)"/>
<path d="M1.30299 7.91117L1.19861 8.27395C1.19635 8.29139 1.19531 8.30865 1.19531 8.32537C1.19531 8.44262 1.25028 8.53514 1.32813 8.54102H1.33073C1.33507 8.54102 1.33975 8.54013 1.34443 8.53852C1.37183 8.52856 1.40235 8.49049 1.43286 8.43907C1.43651 8.43248 1.44032 8.4259 1.44413 8.41896C1.45419 8.40081 1.46442 8.38124 1.47413 8.36113C1.47517 8.35936 1.47587 8.35758 1.47673 8.35597C1.50413 8.29868 1.53014 8.23623 1.55199 8.18001C1.55788 8.16524 1.56326 8.15118 1.56829 8.13748C1.5806 8.10475 1.59117 8.07574 1.59915 8.05315C1.61406 8.00956 1.621 7.96508 1.62082 7.92362C1.6203 7.83875 1.58996 7.76634 1.53534 7.73947C1.52078 7.73253 1.50569 7.72915 1.49008 7.72915C1.41917 7.72915 1.342 7.80085 1.30299 7.91117Z" fill="url(#paint51_linear_500_7468)"/>
<path d="M2.29477 7.02722L1.96047 7.20194C1.87307 7.25728 1.82175 7.33574 1.82227 7.40175C1.82262 7.42666 1.8299 7.44961 1.84568 7.46918C1.84724 7.47114 1.84915 7.47328 1.85088 7.47488C1.87862 7.50352 1.92267 7.51758 1.9733 7.51758H1.97347C1.97711 7.51758 1.98093 7.51758 1.98474 7.5174C2.03815 7.51527 2.09779 7.49818 2.15259 7.46651C2.15709 7.46367 2.16143 7.46135 2.16611 7.45851C2.28437 7.38253 2.38875 7.34161 2.38875 7.34161C2.50545 7.29677 2.58798 7.2039 2.58781 7.12312C2.58763 7.11227 2.58642 7.10177 2.5833 7.09163C2.57775 7.07348 2.56769 7.05782 2.554 7.04483C2.524 7.0169 2.47701 7.00142 2.42239 7.00142C2.38233 7.00142 2.33847 7.00978 2.29477 7.02722Z" fill="url(#paint52_linear_500_7468)"/>
<path d="M3.56537 6.7432L3.22066 6.78519C3.092 6.80352 2.99681 6.87967 2.99612 6.95956C2.99594 6.96685 2.99681 6.97433 2.99854 6.98198C2.99889 6.98429 2.99958 6.9866 3.00045 6.98892C3.00114 6.9923 3.00218 6.9955 3.0034 6.9987C3.00409 7.0003 3.00479 7.00191 3.00531 7.00333C3.0334 7.06738 3.12148 7.10973 3.22448 7.11115C3.22656 7.11115 3.22812 7.11133 3.23003 7.11133C3.23141 7.11133 3.23263 7.11115 3.23367 7.11115C3.25187 7.11097 3.27077 7.10955 3.28967 7.1067L3.57265 7.07183C3.71466 7.06364 3.82876 6.98305 3.82893 6.89408V6.89195C3.82581 6.8069 3.72177 6.74249 3.59086 6.74249C3.58236 6.74249 3.57404 6.74267 3.56537 6.7432Z" fill="url(#paint53_linear_500_7468)"/>
<path d="M4.23438 6.89454C4.23438 6.98529 4.35159 7.05895 4.49325 7.05895L4.81039 7.06055C4.95275 7.06055 5.0691 6.986 5.0691 6.89561C5.0691 6.80558 4.95275 6.7321 4.81039 6.7321L4.49395 6.73121C4.35159 6.73121 4.23438 6.80469 4.23438 6.89454" fill="url(#paint54_linear_500_7468)"/>
<path d="M5.74469 6.73086H5.74174C5.60875 6.73086 5.49899 6.79544 5.48754 6.87942V6.8796C5.48667 6.88441 5.48633 6.88921 5.48633 6.89419C5.48633 6.98404 5.60285 7.05859 5.74469 7.05859H6.05975C6.20297 7.05859 6.31932 6.98493 6.31932 6.89562C6.31932 6.80505 6.20401 6.73086 6.06165 6.73086H5.74469Z" fill="url(#paint55_linear_500_7468)"/>
<path d="M6.98458 6.7321C6.84378 6.7321 6.72656 6.80487 6.72656 6.89543C6.72604 6.98617 6.84309 7.06055 6.98458 7.06055H7.30015C7.44268 7.06055 7.55973 6.98813 7.55973 6.89721C7.55973 6.80647 7.44338 6.7321 7.30015 6.7321H6.98458Z" fill="url(#paint56_linear_500_7468)"/>
<path d="M8.22637 6.7321C8.0828 6.7321 7.96749 6.80487 7.9668 6.89543C7.9668 6.98564 8.0828 7.05984 8.22637 7.05984L8.5416 7.06055C8.68396 7.06055 8.801 6.98635 8.801 6.89632C8.801 6.80558 8.68396 6.7321 8.5416 6.7321H8.22637Z" fill="url(#paint57_linear_500_7468)"/>
<path d="M9.20703 6.89543C9.20703 6.98546 9.32165 7.06055 9.46574 7.06055H9.7827H9.78513H9.78842C9.92679 7.05948 10.0411 6.98582 10.0411 6.89721C10.0411 6.80558 9.92367 6.7321 9.7827 6.7321L9.46695 6.73139C9.32338 6.73139 9.20703 6.80487 9.20703 6.89543" fill="url(#paint58_linear_500_7468)"/>
<path d="M10.4473 6.89828C10.4473 6.98813 10.5638 7.0625 10.7063 7.0625H11.0214C11.1634 7.0625 11.2809 6.98902 11.2809 6.90006C11.2809 6.80825 11.1651 6.73494 11.0226 6.73387L10.7063 6.73316C10.5638 6.73316 10.4473 6.80665 10.4473 6.89828" fill="url(#paint59_linear_500_7468)"/>
<path d="M11.9483 6.73316C11.8063 6.73316 11.6895 6.80504 11.6895 6.89685C11.6895 6.98653 11.8058 7.0609 11.9483 7.0609L12.2634 7.0625C12.4054 7.0625 12.523 6.98813 12.523 6.89721C12.523 6.80754 12.4059 6.73316 12.2644 6.73316H11.9483Z" fill="url(#paint60_linear_500_7468)"/>
<path d="M12.9375 6.90857C12.9375 6.99913 13.0535 7.0728 13.1959 7.0728L13.5121 7.07422C13.6547 7.07422 13.7717 7.00074 13.7717 6.91017C13.7717 6.8205 13.6555 6.74506 13.5121 6.74506L13.1969 6.74417C13.0545 6.74417 12.9375 6.81872 12.9375 6.90857Z" fill="url(#paint61_linear_500_7468)"/>
<path d="M14.168 6.91195V6.91391C14.1681 7.00251 14.2838 7.07546 14.4253 7.07617H14.741C14.8836 7.07617 15.0008 7.00269 15.0008 6.91195C15.0008 6.8221 14.8836 6.74861 14.741 6.74701L14.426 6.74612C14.2833 6.74612 14.168 6.82067 14.168 6.91195Z" fill="url(#paint62_linear_500_7468)"/>
<path d="M15.6795 6.74755H15.6771C15.6559 6.74755 15.6355 6.74915 15.6159 6.75253C15.5032 6.76996 15.4199 6.83491 15.4199 6.91195C15.4199 7.00091 15.5352 7.07617 15.6785 7.07617H15.993C16.1357 7.07617 16.2527 7.00251 16.2527 6.91355C16.2527 6.82103 16.1366 6.74844 15.993 6.74755H15.6795Z" fill="url(#paint63_linear_500_7468)"/>
<path d="M16.6602 6.91106C16.6602 7.00091 16.7763 7.07528 16.9197 7.07528L17.2351 7.07617C17.3766 7.07617 17.4945 7.00251 17.4945 6.91177C17.4956 6.82103 17.3777 6.74772 17.2357 6.74772L16.9197 6.74701C16.7772 6.74701 16.6602 6.8205 16.6602 6.91106Z" fill="url(#paint64_linear_500_7468)"/>
<path d="M18.159 6.74772C18.0165 6.74772 17.9 6.82032 17.8984 6.91124C17.8984 7.00091 18.0165 7.07617 18.159 7.07617H18.4743C18.617 7.07617 18.7337 7.00251 18.7337 6.91266C18.7337 6.82192 18.617 6.74772 18.4743 6.74772H18.159Z" fill="url(#paint65_linear_500_7468)"/>
<path d="M19.3997 6.74897C19.2571 6.74897 19.1408 6.82263 19.1408 6.91301C19.1406 6.91372 19.1406 6.91461 19.1406 6.91515C19.1417 7.005 19.2571 7.07741 19.3981 7.07741L19.714 7.07812C19.8576 7.07812 19.9734 7.00375 19.9734 6.91479C19.9734 6.82423 19.8581 6.74897 19.7149 6.74897H19.3997Z" fill="url(#paint66_linear_500_7468)"/>
<path d="M20.6408 6.75163C20.4999 6.75163 20.3828 6.82458 20.3828 6.91514C20.3828 7.00571 20.4999 7.08008 20.6408 7.08008H20.9571C21.1 7.08008 21.2165 7.00677 21.2165 6.91674C21.2165 6.82511 21.1017 6.75341 20.958 6.75163H20.6408Z" fill="url(#paint67_linear_500_7468)"/>
<path d="M21.8801 6.74986C21.7374 6.74986 21.6211 6.82316 21.6211 6.91319C21.6211 7.00322 21.7366 7.07741 21.8801 7.07741L22.1952 7.07812C22.3384 7.07812 22.4548 7.00482 22.4548 6.91408C22.4548 6.82405 22.3393 6.74986 22.1952 6.74986H21.8801Z" fill="url(#paint68_linear_500_7468)"/>
<path d="M22.873 6.91603C22.873 7.00677 22.9894 7.08132 23.1318 7.08132L23.448 7.08203C23.5912 7.08203 23.7059 7.00766 23.7059 6.9187C23.7059 6.82724 23.5912 6.75376 23.4487 6.75376L23.1318 6.75269C22.9894 6.75269 22.873 6.82724 22.873 6.91603Z" fill="url(#paint69_linear_500_7468)"/>
<path d="M24.3697 6.76264C24.2277 6.76264 24.1113 6.83612 24.1113 6.9274C24.1113 7.01671 24.2277 7.09162 24.3692 7.09162H24.6856C24.6863 7.0918 24.6873 7.0918 24.6882 7.0918C24.6893 7.0918 24.6905 7.0918 24.6915 7.09162C24.8306 7.09055 24.9448 7.01707 24.9448 6.92828C24.9448 6.83772 24.8287 6.76335 24.686 6.76264H24.3697Z" fill="url(#paint70_linear_500_7468)"/>
<path d="M25.6129 6.76424H25.6079C25.4678 6.76424 25.354 6.83808 25.3535 6.92757C25.3535 7.0176 25.4704 7.09109 25.6129 7.09109L25.9297 7.0918C26.07 7.0918 26.1886 7.0192 26.1886 6.92846C26.1886 6.83861 26.0714 6.76424 25.9297 6.76424H25.6129Z" fill="url(#paint71_linear_500_7468)"/>
<path d="M26.5938 6.92792C26.5938 7.01778 26.7099 7.09286 26.8526 7.09286L27.1679 7.09375C27.3104 7.09375 27.4283 7.01849 27.4283 6.92953C27.4283 6.83878 27.3104 6.76352 27.1694 6.76352L26.8531 6.76281C26.7099 6.76281 26.5938 6.83807 26.5938 6.92792Z" fill="url(#paint72_linear_500_7468)"/>
<path d="M27.9907 6.74986C27.8477 6.74986 27.7319 6.82316 27.7305 6.91319C27.7305 7.00322 27.8477 7.07741 27.9892 7.07741L28.3054 7.07812C28.4478 7.07812 28.5643 7.00482 28.5643 6.91408V6.91194C28.5638 6.8228 28.4476 6.74986 28.3054 6.74986H27.9907Z" fill="url(#paint73_linear_500_7468)"/>
<path d="M29.5854 6.71893C29.5805 6.71911 29.5758 6.71911 29.571 6.71929L29.2564 6.73245C29.1172 6.73815 29.0047 6.81234 29.004 6.90095C29.0038 6.90308 29.004 6.90522 29.004 6.90735C29.0078 6.99187 29.1155 7.05948 29.2481 7.06055H29.2512H29.2526C29.2547 7.06055 29.2571 7.06055 29.2596 7.06037C29.263 7.06037 29.2667 7.06019 29.2701 7.06001L29.5849 7.04791C29.7257 7.04293 29.8384 6.96607 29.8378 6.87817C29.8378 6.87675 29.8378 6.87533 29.8378 6.87408C29.834 6.78672 29.7232 6.71893 29.5871 6.71893H29.5854Z" fill="url(#paint74_linear_500_7468)"/>
<path d="M30.6752 6.40018L30.3823 6.5137C30.2679 6.55675 30.1919 6.64447 30.1914 6.72098C30.1914 6.73414 30.1935 6.74731 30.1983 6.75959C30.1989 6.76083 30.1994 6.76208 30.1999 6.76332C30.2022 6.76848 30.2049 6.77347 30.2079 6.77827C30.2356 6.82151 30.2932 6.84499 30.3619 6.8457H30.3655H30.3695C30.4109 6.84517 30.4562 6.83645 30.5009 6.81919L30.7948 6.70479C30.908 6.66102 30.9838 6.57401 30.984 6.49715C30.9842 6.48381 30.9819 6.47064 30.9771 6.45818C30.9559 6.40392 30.8905 6.37349 30.8108 6.37349C30.7681 6.37349 30.7215 6.38203 30.6752 6.40018Z" fill="url(#paint75_linear_500_7468)"/>
<path d="M31.6028 5.80914L31.3401 5.98315C31.2503 6.04187 31.1962 6.12745 31.1953 6.19862C31.1951 6.22228 31.2005 6.24434 31.2127 6.26338C31.2147 6.26658 31.2172 6.26979 31.2198 6.27246C31.2199 6.27299 31.2201 6.27334 31.2203 6.27352C31.2451 6.30252 31.2844 6.31747 31.3306 6.31836H31.3356H31.341C31.3841 6.31747 31.4322 6.30502 31.4792 6.28117C31.4838 6.27886 31.4884 6.27655 31.4927 6.27406C31.4988 6.27085 31.5047 6.26712 31.5105 6.26356C31.5137 6.2616 31.5168 6.25964 31.5197 6.25751L31.7842 6.08332C31.7888 6.0803 31.7935 6.07709 31.7979 6.07354C31.7982 6.07318 31.7984 6.073 31.7989 6.07265C31.7992 6.07229 31.7992 6.07229 31.7996 6.07211C31.8131 6.06108 31.8251 6.04916 31.8383 6.03795V5.75719C31.8211 5.75274 31.8024 5.75025 31.7824 5.75025C31.7264 5.75025 31.6617 5.76893 31.6028 5.80914Z" fill="url(#paint76_linear_500_7468)"/>
</g>
</g>
</g>
<path d="M29.1266 7.63121C29.0948 7.63208 29.0669 7.63294 29.0432 7.63208C29.0109 7.63156 28.9794 7.63121 28.9483 7.63121C28.8328 7.63121 28.722 7.63485 28.6047 7.6352H28.5932C28.1618 7.6352 27.7276 7.63364 27.2971 7.63364C25.6217 7.63364 23.9441 7.63919 22.2719 7.64318C18.7971 7.65359 15.3263 7.63364 11.8509 7.63364C10.2626 7.63364 8.67205 7.70251 7.08012 7.68742C7.07578 7.68742 7.07197 7.68707 7.06746 7.68707C7.04526 7.68689 7.02307 7.68655 7.0007 7.68637C6.97434 7.68603 6.94782 7.68568 6.92146 7.68533C6.13303 7.6751 5.34877 7.6829 4.56208 7.6829H3.21324C3.10261 7.6829 2.54775 7.65046 2.54688 7.86228C2.54671 7.87737 2.54983 7.89385 2.55555 7.91172C2.61208 8.09664 2.91621 8.19119 3.0747 8.24861C3.34294 8.34749 3.62245 8.41358 3.90214 8.47239C4.46879 8.59591 5.04776 8.67709 5.62689 8.74648C6.82262 8.88839 8.0265 8.972 9.22952 9.03098C11.67 9.15138 14.1144 9.16959 16.5565 9.12258C20.118 9.05145 23.7201 8.88908 27.2371 8.29736C27.6832 8.22241 28.1283 8.13793 28.5693 8.04079C28.7742 7.99447 28.978 7.9452 29.1807 7.89177C29.1808 7.89177 29.1812 7.89177 29.1814 7.8916C29.2154 7.8831 29.5817 7.78421 29.4668 7.69019C29.4023 7.63849 29.2963 7.63051 29.1985 7.63051C29.1736 7.63051 29.15 7.63051 29.1266 7.63121Z" fill="url(#paint77_linear_500_7468)"/>
<path fill-rule="evenodd" clip-rule="evenodd" d="M0.743651 15.9516C0.802698 15.9547 0.861662 15.9577 0.921874 15.9577C1.36941 15.9577 1.78607 15.8686 2.12922 15.7193C3.94935 15.8367 6.42334 16.0043 6.67893 16.028C8.1533 16.1692 9.12345 16.5633 9.83107 17.7076C10.199 18.2994 10.3728 18.9742 10.2843 19.8133C10.2826 19.885 10.2788 19.9587 10.2691 20.0313C10.1505 20.9954 9.75877 21.7315 8.89561 22.3952C7.95061 23.1232 6.35173 23.119 4.85776 23.0029C3.81063 22.9238 2.78465 22.7987 1.74793 22.6524C0.999382 22.5453 0.687098 22.0806 0.677734 21.3911C0.711026 20.1033 0.719869 18.8178 0.703917 17.5314C0.703917 17.2119 0.712131 16.8925 0.72034 16.5734C0.725678 16.3659 0.731013 16.1585 0.734088 15.9511L0.743651 15.9516ZM9.68471 18.0502C9.84476 18.2542 9.96596 18.466 10.0551 18.6814C9.95781 18.4612 9.83435 18.248 9.68471 18.0502Z" fill="#A6941F"/>
<path d="M0.0592174 14.8285C0.0592174 15.4677 0.0249061 16.1051 0.0249061 16.7445C0.0306537 17.1844 0.0336146 17.6238 0.0336146 18.0636C0.0332663 18.9029 0.0221194 19.7426 0 20.5827C0.00940512 21.2688 0.322038 21.73 1.07323 21.8368C2.11633 21.982 3.14723 22.1055 4.19869 22.1858C5.69933 22.2996 7.30429 22.3045 8.25473 21.5798C9.12018 20.9212 9.51502 20.1894 9.63433 19.2302C9.64565 19.1375 9.65139 19.0437 9.65122 18.9496C9.65 18.0404 9.11983 17.0964 8.27546 16.5397C6.98678 15.689 5.33218 15.7748 3.77946 15.6811C3.10561 15.6381 2.24922 15.5641 1.58023 15.5033C1.20769 15.4707 0.534873 15.452 0.261427 15.176C0.148044 15.0614 0.0823819 14.9381 0.0623525 14.8014C0.0592174 14.8102 0.0592174 14.8203 0.0592174 14.8285Z" fill="url(#paint78_linear_500_7468)"/>
<path d="M0.573138 13.7819C0.56915 13.7833 0.564295 13.7865 0.563775 13.789C0.557879 13.7932 0.55077 13.7981 0.543141 13.8062C0.456617 13.8854 0.305416 14.1044 0.286343 14.1354C0.139824 14.3583 0.058849 14.5 0.0546875 14.7596C0.0754949 14.8978 0.142599 15.022 0.253918 15.1362C0.527708 15.4157 1.2069 15.4262 1.57727 15.464C2.25888 15.5317 3.08528 15.6011 3.75667 15.6445C5.51281 15.7524 7.4446 15.6657 8.70518 16.8955C9.32888 17.5024 9.57129 18.1816 9.57094 18.8856C9.57059 19.2609 9.50141 19.643 9.38437 20.0254C9.54996 19.4877 9.62677 19.0096 9.62712 18.5769C9.62764 17.9239 9.45425 17.375 9.15011 16.8833C8.44145 15.7387 7.47252 15.3463 5.99797 15.2033C5.72331 15.178 2.88709 14.9869 1.055 14.8708C0.631745 14.8444 0.617874 14.6042 0.617874 14.2318C0.617874 14.1852 0.619781 14.0881 0.619781 13.989C0.619781 13.9142 0.618741 13.8383 0.614753 13.7819C0.611285 13.7787 0.603482 13.776 0.593945 13.776C0.586836 13.776 0.578513 13.7776 0.573138 13.7819Z" fill="url(#paint79_linear_500_7468)"/>
<mask id="mask5_500_7468" style="mask-type:alpha" maskUnits="userSpaceOnUse" x="0" y="15" width="10" height="7">
<path fill-rule="evenodd" clip-rule="evenodd" d="M0.138672 21.8828H9.26428V15.5866H0.138672L0.138672 21.8828Z" fill="white"/>
</mask>
<g mask="url(#mask5_500_7468)">
<mask id="mask6_500_7468" style="mask-type:alpha" maskUnits="userSpaceOnUse" x="-1" y="15" width="11" height="8">
<path fill-rule="evenodd" clip-rule="evenodd" d="M-0.117188 15.1771H9.66083V22.3008H-0.117188L-0.117188 15.1771Z" fill="white"/>
</mask>
<g mask="url(#mask6_500_7468)">
<g opacity="0.800003">
<path d="M0.299993 15.5797C0.299818 15.5799 0.299818 15.5799 0.299644 15.5799C0.276126 15.5815 0.254175 15.5857 0.234315 15.5924C0.23414 15.5926 0.233966 15.5926 0.233618 15.5926C0.233095 15.5932 0.232224 15.5932 0.231527 15.5935C0.231179 15.5935 0.23083 15.5937 0.230482 15.5939C0.230133 15.594 0.229262 15.5942 0.22874 15.5944C0.228391 15.5946 0.227694 15.5947 0.227346 15.5947C0.226998 15.5953 0.226301 15.5955 0.225778 15.5956C0.22543 15.5958 0.224733 15.596 0.22421 15.5963C0.223688 15.5965 0.223339 15.5965 0.222817 15.5967C0.222468 15.597 0.221597 15.5972 0.221074 15.5976C0.220726 15.5978 0.220203 15.5978 0.219855 15.5979C0.219158 15.5983 0.218461 15.5986 0.217939 15.5988C0.21759 15.599 0.217416 15.5992 0.217068 15.5992C0.216196 15.5997 0.215325 15.6 0.214629 15.6004C0.214629 15.6004 0.214454 15.6006 0.21428 15.6006C0.183096 15.6151 0.159752 15.6363 0.147383 15.664C0.147034 15.6647 0.146686 15.6658 0.146337 15.6667V15.6668L0.145466 15.6695C0.145118 15.6704 0.144595 15.6713 0.144247 15.6722C0.144072 15.6732 0.14355 15.6744 0.143201 15.6755C0.140762 15.6829 0.139369 15.6907 0.138672 15.6983V15.716V15.7162C0.13902 15.7172 0.139195 15.7183 0.139195 15.7193V15.7195C0.139195 15.7204 0.139369 15.7216 0.139543 15.7227V15.7232C0.139717 15.7243 0.139891 15.7253 0.140066 15.7266C0.140414 15.7289 0.140937 15.7312 0.141459 15.7335V15.7336C0.157138 15.8035 0.232398 15.8743 0.336926 15.9093L0.637791 16.0108C0.642494 16.0122 0.647024 16.0134 0.651379 16.015C0.687964 16.0258 0.724026 16.0311 0.757649 16.0312H0.759565H0.763572C0.839529 16.0305 0.902594 16.0033 0.929074 15.9558C0.931687 15.951 0.934126 15.9457 0.935868 15.9404C0.936217 15.9395 0.936565 15.9386 0.936914 15.9378C0.940746 15.9266 0.942663 15.915 0.942663 15.9033C0.942837 15.8266 0.862176 15.7412 0.745106 15.7024L0.44337 15.6002C0.441627 15.5995 0.439711 15.599 0.437795 15.5983C0.437446 15.5981 0.437098 15.5979 0.436401 15.5979C0.434659 15.5972 0.433091 15.5967 0.431349 15.5963C0.431001 15.596 0.430129 15.5958 0.429607 15.5956C0.428387 15.5953 0.426994 15.5947 0.425948 15.5946C0.425077 15.5944 0.424555 15.594 0.423509 15.5939C0.422116 15.5935 0.420722 15.5932 0.419502 15.5928C0.418457 15.5924 0.417586 15.5923 0.416715 15.5917C0.415844 15.5916 0.415147 15.5916 0.414102 15.5912C0.412534 15.5909 0.410966 15.5905 0.409398 15.5902C0.40905 15.5902 0.408353 15.5898 0.40783 15.5898C0.404346 15.5889 0.400513 15.588 0.396855 15.5871H0.396681C0.386402 15.5852 0.376298 15.5833 0.366368 15.5822C0.366193 15.5822 0.365845 15.5822 0.365671 15.582C0.363754 15.5817 0.361838 15.5815 0.360096 15.5813C0.359051 15.5811 0.358354 15.5811 0.357483 15.581C0.35696 15.581 0.355915 15.5806 0.355392 15.5806C0.353476 15.5806 0.352082 15.5804 0.35034 15.5803H0.349469C0.347553 15.5801 0.345636 15.5799 0.343894 15.5797H0.299993Z" fill="url(#paint80_linear_500_7468)"/>
<path d="M1.48314 15.8439C1.48261 15.8439 1.48244 15.8439 1.48227 15.8439C1.4807 15.8443 1.47913 15.8446 1.47756 15.845C1.44446 15.8533 1.41519 15.866 1.39133 15.8819C1.35317 15.9074 1.32861 15.9415 1.32635 15.9798C1.32617 15.9827 1.32617 15.9855 1.32617 15.9883C1.32669 16.0751 1.43558 16.1525 1.57495 16.161L1.89097 16.1829C1.89602 16.1832 1.90107 16.1834 1.90613 16.1836H1.91449H1.91693H1.91971C2.04933 16.1827 2.15595 16.1198 2.16117 16.0367C2.16135 16.0339 2.16135 16.0311 2.16135 16.0284C2.16065 15.9425 2.05212 15.866 1.91257 15.8575L1.59655 15.8347C1.58766 15.8342 1.57913 15.8339 1.57042 15.8339C1.53976 15.8339 1.51014 15.8374 1.48314 15.8439Z" fill="url(#paint81_linear_500_7468)"/>
<path d="M2.78539 15.9198C2.66588 15.927 2.57146 15.9873 2.56658 16.0654C2.56641 16.0682 2.56641 16.0712 2.56641 16.0737C2.5671 16.1605 2.67581 16.2359 2.81448 16.2446L3.1312 16.2665C3.13626 16.267 3.14131 16.267 3.14653 16.2672C3.15089 16.2674 3.15542 16.2676 3.15977 16.2676H3.16134H3.16744C3.29357 16.2658 3.39583 16.2038 3.40141 16.1223C3.40158 16.12 3.40158 16.1179 3.40158 16.116C3.4021 16.0283 3.29322 15.9516 3.15368 15.9413L2.83766 15.92C2.82807 15.9194 2.81884 15.9191 2.80978 15.9191C2.80159 15.9191 2.79341 15.9193 2.78539 15.9198Z" fill="url(#paint82_linear_500_7468)"/>
<path d="M3.90917 16.0366H3.90899C3.8914 16.0458 3.87607 16.0563 3.86283 16.0681C3.83826 16.0907 3.82276 16.1181 3.82067 16.1478C3.82067 16.1501 3.82032 16.152 3.82032 16.1542C3.81945 16.2425 3.93042 16.3185 4.06874 16.3289L4.38599 16.3507C4.39052 16.351 4.39504 16.3512 4.3994 16.3514C4.40341 16.3514 4.40724 16.3516 4.41107 16.3516H4.41281C4.41595 16.3516 4.41891 16.3516 4.42205 16.3514C4.5487 16.3487 4.65061 16.2871 4.65671 16.2047C4.65671 16.2021 4.65689 16.1991 4.65689 16.1964C4.65671 16.1103 4.54626 16.034 4.40863 16.0246L4.09244 16.0027C4.08669 16.0024 4.08111 16.0022 4.07519 16.0022C4.07205 16.0018 4.06909 16.0018 4.06613 16.0018C4.00655 16.0018 3.95167 16.0147 3.90917 16.0366Z" fill="url(#paint83_linear_500_7468)"/>
<path d="M5.11163 16.1482C5.08288 16.1721 5.06529 16.2018 5.06267 16.2346C5.0625 16.2375 5.0625 16.2403 5.0625 16.2429C5.0632 16.3288 5.17278 16.4052 5.31075 16.4147L5.6273 16.4368C5.63218 16.437 5.63723 16.4373 5.64228 16.4373C5.64524 16.4375 5.64855 16.4375 5.65186 16.4375H5.6536H5.65953C5.77155 16.4359 5.86458 16.3894 5.89123 16.3226C5.89332 16.3179 5.89471 16.3127 5.89611 16.308C5.89715 16.3025 5.8982 16.297 5.89855 16.2915C5.89872 16.2892 5.89872 16.2873 5.89872 16.2852C5.89907 16.1986 5.78966 16.1198 5.64925 16.1104L5.3334 16.0902C5.32608 16.0897 5.31929 16.0894 5.31215 16.0892C5.30901 16.0892 5.30588 16.089 5.30274 16.089C5.22452 16.089 5.15536 16.1118 5.11163 16.1482Z" fill="url(#paint84_linear_500_7468)"/>
<path d="M6.30291 16.3193C6.30291 16.3214 6.30273 16.3234 6.30273 16.3255C6.30256 16.4117 6.41266 16.49 6.55151 16.5003L6.8684 16.5206C6.87346 16.5208 6.87851 16.5211 6.88356 16.5213C6.88757 16.5215 6.89175 16.5215 6.89575 16.5215H6.89819H6.90429C7.03094 16.5194 7.1339 16.4577 7.13878 16.3762C7.1393 16.3734 7.1393 16.3706 7.1393 16.3677C7.13826 16.2811 7.03025 16.2052 6.89088 16.1949L6.57485 16.1733C6.56597 16.1726 6.55743 16.1725 6.54872 16.1725C6.41702 16.1725 6.30883 16.2354 6.30291 16.3193Z" fill="url(#paint85_linear_500_7468)"/>
<path d="M1.17752 21.2698C1.1763 21.2759 1.17578 21.2825 1.17578 21.2887C1.17578 21.3705 1.27142 21.4535 1.40313 21.4778L1.71532 21.5354C1.72107 21.5366 1.72716 21.5377 1.73291 21.5386C1.7519 21.5414 1.77037 21.5428 1.78831 21.543H1.79075C1.79406 21.543 1.79737 21.5428 1.80086 21.5428C1.90469 21.5401 1.98831 21.4935 2.00155 21.4232C2.00277 21.4171 2.00347 21.4108 2.00347 21.4048C2.00364 21.3224 1.90643 21.2401 1.77612 21.2166L1.4648 21.1572C1.45348 21.1552 1.44198 21.1537 1.43065 21.1526C1.41759 21.1514 1.40505 21.1506 1.3925 21.1506C1.28223 21.1506 1.19181 21.1971 1.17752 21.2698Z" fill="url(#paint86_linear_500_7468)"/>
<path d="M0.300599 20.7251C0.243108 20.7251 0.194852 20.7443 0.170113 20.7825C0.169591 20.7837 0.168546 20.785 0.168023 20.7862C0.157222 20.8039 0.152344 20.8237 0.152344 20.8449C0.152344 20.9166 0.211924 21.0023 0.307915 21.0582L0.580035 21.2181C0.583345 21.22 0.586655 21.222 0.59014 21.2238C0.590836 21.2241 0.591185 21.2243 0.591533 21.2246C0.641707 21.2517 0.693273 21.2665 0.740137 21.269C0.745189 21.2694 0.750241 21.2695 0.755293 21.2695H0.760868C0.814874 21.2683 0.859995 21.2496 0.884385 21.2135C0.885778 21.2117 0.886823 21.21 0.887869 21.2082C0.898147 21.1907 0.903199 21.1709 0.903025 21.1501C0.902503 21.0781 0.844141 20.9924 0.749544 20.9371L0.475159 20.7761C0.442582 20.757 0.408959 20.7433 0.376033 20.7349C0.376033 20.7348 0.375684 20.7348 0.375684 20.7348C0.374116 20.7344 0.372548 20.7341 0.370806 20.7337C0.370632 20.7335 0.370284 20.7335 0.370109 20.7334C0.368716 20.733 0.367322 20.7328 0.365754 20.7325C0.36558 20.7323 0.365231 20.7323 0.364535 20.7321C0.362967 20.7318 0.361399 20.7314 0.360005 20.7312C0.359657 20.7311 0.359482 20.7311 0.359134 20.7311C0.357566 20.7307 0.355998 20.7305 0.354256 20.7302H0.353733C0.335789 20.7266 0.318368 20.7251 0.30147 20.7251H0.300599Z" fill="url(#paint87_linear_500_7468)"/>
<path d="M2.40838 21.482C2.40838 21.4848 2.40821 21.4877 2.40821 21.4907C2.40717 21.5766 2.5164 21.6547 2.65385 21.6672L2.96935 21.6959C2.97562 21.6964 2.98207 21.6967 2.98817 21.6971C2.99322 21.6973 2.99792 21.6973 3.0028 21.6973H3.00384C3.00785 21.6973 3.01186 21.6973 3.01604 21.6971C3.12457 21.6939 3.21429 21.6474 3.23834 21.5817C3.24112 21.5744 3.24304 21.5668 3.24408 21.5589C3.24408 21.5578 3.24426 21.5564 3.24443 21.555C3.24461 21.5524 3.24478 21.5499 3.24478 21.5467C3.24565 21.4617 3.13764 21.3838 2.99966 21.3702L2.68451 21.3426C2.67824 21.3419 2.67197 21.3417 2.6657 21.3413H2.66552C2.65925 21.341 2.65298 21.341 2.64688 21.341C2.52006 21.341 2.41588 21.4002 2.40838 21.482Z" fill="url(#paint88_linear_500_7468)"/>
<path d="M3.74896 21.5109C3.71255 21.5358 3.68921 21.5687 3.6859 21.6058C3.68555 21.6088 3.68555 21.6113 3.68555 21.6139C3.68537 21.6996 3.79112 21.7783 3.93049 21.7913L4.24564 21.8185C4.24738 21.8187 4.24948 21.8189 4.25122 21.8191C4.26115 21.8198 4.27125 21.8201 4.28083 21.8201C4.28118 21.8201 4.28153 21.8203 4.28205 21.8203C4.28414 21.8203 4.28589 21.8201 4.2878 21.8201C4.41219 21.8184 4.51306 21.759 4.52003 21.6788C4.52038 21.6756 4.52055 21.6719 4.52055 21.6683C4.5202 21.5833 4.41289 21.5063 4.27526 21.4939L3.96011 21.4655C3.95662 21.4653 3.95331 21.4649 3.95 21.4647C3.94094 21.464 3.93188 21.4639 3.92335 21.4639C3.85436 21.4639 3.79217 21.4817 3.74896 21.5109Z" fill="url(#paint89_linear_500_7468)"/>
<path d="M5.181 21.5506C5.04181 21.5506 4.92805 21.6207 4.92578 21.7091V21.7114C4.92648 21.801 5.04111 21.8743 5.18414 21.8768L5.50103 21.8809H5.51479C5.63483 21.8787 5.73413 21.8252 5.758 21.7533C5.75817 21.7526 5.75852 21.752 5.75852 21.7513C5.75869 21.7508 5.75887 21.7503 5.75904 21.7496V21.7494C5.75922 21.7488 5.75939 21.7483 5.75956 21.7474V21.7473C5.75974 21.7467 5.76009 21.7464 5.76009 21.7457C5.76009 21.7455 5.76009 21.7455 5.76026 21.7453C5.76026 21.7448 5.76043 21.7444 5.76043 21.7439C5.76061 21.7437 5.76061 21.7435 5.76061 21.7432C5.76078 21.7428 5.76078 21.7425 5.76096 21.7423C5.76096 21.7418 5.76096 21.7414 5.76113 21.7412C5.76113 21.7409 5.76113 21.7407 5.76148 21.7402C5.76148 21.7397 5.76165 21.7393 5.76165 21.7391C5.76165 21.739 5.76165 21.7388 5.76183 21.7386C5.76183 21.7381 5.76183 21.7375 5.76183 21.7372C5.76183 21.7368 5.762 21.7367 5.762 21.7363C5.762 21.7361 5.76218 21.7356 5.76218 21.7352C5.76218 21.7349 5.76218 21.7345 5.76235 21.7344V21.7331C5.76253 21.7328 5.76253 21.7326 5.76253 21.7322C5.76253 21.7319 5.7627 21.7314 5.7627 21.7312V21.7305C5.7627 21.7299 5.76305 21.7296 5.76305 21.7291V21.7285C5.76305 21.728 5.76322 21.7275 5.76322 21.7269V21.7262V21.7248C5.7634 21.7234 5.7634 21.7222 5.7634 21.7209V21.7188C5.76374 21.6303 5.64789 21.5568 5.50574 21.5545L5.18815 21.5506H5.181Z" fill="url(#paint90_linear_500_7468)"/>
<path d="M6.73659 21.4327L6.42231 21.4731C6.28625 21.4919 6.18468 21.5721 6.18555 21.6571C6.18555 21.6612 6.18573 21.6656 6.18625 21.6697C6.19688 21.7441 6.28747 21.7974 6.40105 21.8006C6.40471 21.8008 6.40855 21.8008 6.4122 21.8008H6.41447C6.43137 21.8006 6.44844 21.7995 6.46621 21.7972L6.77979 21.7555C6.91446 21.7379 7.01742 21.658 7.01759 21.5739C7.01759 21.5689 7.01725 21.5642 7.01655 21.5592C7.0061 21.4818 6.91045 21.4288 6.79234 21.4288C6.77439 21.4288 6.75558 21.4302 6.73659 21.4327Z" fill="url(#paint91_linear_500_7468)"/>
<path d="M7.77434 20.98L7.5024 21.142C7.40762 21.1987 7.34926 21.2852 7.34961 21.3567C7.34961 21.3778 7.35466 21.3976 7.36546 21.4151C7.36808 21.4189 7.37052 21.4227 7.37348 21.4262C7.39926 21.4578 7.44281 21.4739 7.49421 21.4744C7.49508 21.4746 7.49595 21.4746 7.49682 21.4746C7.49856 21.4746 7.50031 21.4746 7.50205 21.4744C7.54856 21.4735 7.60117 21.4601 7.65187 21.434C7.65954 21.4301 7.6672 21.426 7.67452 21.4214L7.9449 21.2585C8.03967 21.2019 8.09838 21.1153 8.09786 21.0438C8.09768 21.0227 8.09245 21.0031 8.08165 20.9858C8.07834 20.9803 8.07451 20.9752 8.07033 20.9706C8.04402 20.9414 8.00152 20.9269 7.95169 20.9269C7.89699 20.9269 7.83375 20.9444 7.77434 20.98Z" fill="url(#paint92_linear_500_7468)"/>
<path d="M8.53478 20.2089L8.34036 20.4566C8.29141 20.5197 8.26562 20.5904 8.26562 20.6501C8.2658 20.6966 8.2813 20.7362 8.31371 20.7602C8.31719 20.7631 8.32102 20.7657 8.32486 20.7678C8.34193 20.7781 8.36179 20.7828 8.38304 20.7832H8.38635C8.39646 20.7832 8.40656 20.7823 8.41702 20.7806C8.47956 20.7691 8.54907 20.7251 8.60273 20.6563L8.7954 20.4071C8.84436 20.3448 8.86979 20.2741 8.87032 20.2143C8.87066 20.168 8.85568 20.1284 8.82502 20.1046C8.81666 20.0982 8.80743 20.0933 8.79732 20.0896C8.78286 20.0841 8.76718 20.0814 8.75063 20.0814C8.6806 20.0814 8.59628 20.1286 8.53478 20.2089Z" fill="url(#paint93_linear_500_7468)"/>
<path d="M8.95786 19.178C8.94079 19.2086 8.92737 19.2439 8.91918 19.2823L8.85263 19.5891C8.84671 19.617 8.84375 19.6447 8.84375 19.6711C8.84375 19.7748 8.88817 19.86 8.96082 19.8747C8.96761 19.8762 8.97458 19.8768 8.98138 19.877H8.9826C8.98904 19.877 8.99549 19.8762 9.00211 19.8752C9.07737 19.8619 9.15089 19.7739 9.1758 19.6575L9.2413 19.3496C9.24757 19.3215 9.25019 19.2943 9.25019 19.268C9.24984 19.1648 9.20524 19.0803 9.13521 19.0651C9.13294 19.0646 9.1305 19.0639 9.12824 19.0635C9.12319 19.063 9.11796 19.0628 9.11291 19.0628C9.05489 19.0628 8.99688 19.1079 8.95786 19.178Z" fill="url(#paint94_linear_500_7468)"/>
<path d="M9.00652 17.9122C9.00025 17.9122 8.99398 17.9126 8.98771 17.9138C8.91367 17.928 8.86506 18.0179 8.86523 18.1271C8.86523 18.1499 8.86733 18.1734 8.87185 18.1973L8.92935 18.5057C8.93022 18.5108 8.93144 18.5161 8.93248 18.5211C8.93457 18.5304 8.93684 18.5393 8.93945 18.5479C8.97046 18.6511 9.03927 18.725 9.11122 18.7301C9.11366 18.7303 9.11628 18.7305 9.11906 18.7305H9.12133C9.12359 18.7303 9.12603 18.7303 9.12847 18.7299C9.13039 18.7299 9.13213 18.7296 9.13422 18.7294C9.13544 18.7292 9.13666 18.7292 9.13805 18.7287C9.21157 18.716 9.26017 18.6264 9.25983 18.5166C9.25983 18.4938 9.25774 18.4702 9.25321 18.4461L9.19746 18.1388C9.18579 18.0768 9.1607 18.022 9.12847 17.9817L9.12742 17.9808C9.12725 17.9805 9.1269 17.9799 9.1269 17.9798C9.106 17.9545 9.08196 17.935 9.05687 17.9234C9.05652 17.9234 9.05635 17.9232 9.05617 17.923C9.05495 17.9229 9.05426 17.9223 9.05321 17.922C9.03788 17.9156 9.02237 17.9122 9.0067 17.9122H9.00652Z" fill="url(#paint95_linear_500_7468)"/>
<path d="M8.39756 17.0263C8.37787 17.03 8.36045 17.0381 8.34564 17.0507C8.31742 17.0744 8.30418 17.1108 8.3047 17.153C8.3054 17.2143 8.33536 17.2878 8.39024 17.3513L8.59651 17.59C8.5986 17.5922 8.60052 17.5945 8.60243 17.5966C8.60348 17.5978 8.60487 17.599 8.60592 17.6001C8.60783 17.6024 8.60992 17.6045 8.61184 17.6065H8.61201C8.66846 17.6641 8.73588 17.6989 8.79476 17.7045C8.80016 17.7049 8.80574 17.7051 8.81096 17.7051H8.81497C8.84023 17.7045 8.86358 17.6978 8.88274 17.6846C8.88588 17.6826 8.88901 17.6802 8.89197 17.6775C8.91985 17.6542 8.93309 17.618 8.93274 17.5757C8.93239 17.5142 8.90277 17.4405 8.84703 17.3773L8.64006 17.1397C8.59407 17.0864 8.53797 17.0498 8.48484 17.0334C8.46428 17.0272 8.44407 17.0236 8.42508 17.0236C8.4155 17.0236 8.40627 17.0243 8.39756 17.0263Z" fill="url(#paint96_linear_500_7468)"/>
<path d="M7.39085 16.4441C7.38911 16.4467 7.38772 16.4494 7.38615 16.4522C7.37866 16.4672 7.37517 16.4836 7.375 16.5008C7.375 16.5748 7.44155 16.6623 7.54608 16.7125L7.83022 16.8516C7.83579 16.8546 7.84154 16.8569 7.84712 16.8593C7.84886 16.8601 7.85008 16.8609 7.85182 16.8613C7.89015 16.8775 7.929 16.8869 7.96523 16.8897C7.97307 16.8903 7.98091 16.8906 7.98858 16.8906H7.99502C8.05687 16.8892 8.10809 16.8673 8.13265 16.827C8.13387 16.8247 8.13527 16.8224 8.13648 16.8199C8.14415 16.8047 8.14781 16.7883 8.14798 16.7712C8.14851 16.6969 8.08196 16.6102 7.97673 16.5587L7.69364 16.4205C7.63911 16.3942 7.58318 16.3818 7.53388 16.3818C7.46925 16.3818 7.41594 16.4031 7.39085 16.4441Z" fill="url(#paint97_linear_500_7468)"/>
</g>
</g>
</g>
<path d="M5.02978 20.2832C5.60718 20.9355 6.60316 20.9951 7.2553 20.4176C7.90813 19.8399 7.96778 18.8454 7.39072 18.1935C6.81176 17.5432 5.81647 17.4817 5.16416 18.0585C4.51202 18.6364 4.45185 19.6324 5.02978 20.2832Z" fill="#CBAF3B"/>
<path d="M5.08288 17.8829C4.75143 18.179 4.58237 18.5917 4.58203 19.0068C4.58169 19.3618 4.70472 19.7182 4.95557 20.0048C5.49988 20.6267 6.43793 20.6848 7.05256 20.1324C7.3835 19.8356 7.55239 19.4228 7.55239 19.0081C7.55256 18.6535 7.42918 18.2975 7.17833 18.0114C6.88539 17.6754 6.47677 17.5039 6.06661 17.5039C5.71685 17.5039 5.36573 17.629 5.08288 17.8829Z" fill="url(#paint98_linear_500_7468)"/>
<path d="M5.09151 17.8886C4.75565 18.189 4.58433 18.6078 4.58399 19.029C4.58364 19.3892 4.70831 19.7508 4.96251 20.0417C5.51407 20.6727 6.33371 20.5797 6.95533 20.0213C7.32484 19.6896 7.54141 19.2679 7.54106 18.8481C7.54089 18.5611 7.4391 18.2747 7.2149 18.0189C6.91805 17.678 6.50399 17.504 6.08836 17.504C5.73394 17.504 5.37813 17.6309 5.09151 17.8886Z" fill="url(#paint99_linear_500_7468)"/>
<path d="M5.05989 17.8358C4.73083 18.1305 4.58508 18.5575 4.58594 18.9148C4.58611 19.1363 4.64304 19.331 4.74712 19.4504C5.01976 19.7609 5.67204 19.6253 6.20566 19.1483C6.58101 18.8127 6.79672 18.3976 6.79672 18.0723C6.79672 17.9353 6.75831 17.8138 6.67721 17.7216C6.54654 17.572 6.29311 17.4821 6.00435 17.4821C5.6909 17.4821 5.33699 17.5878 5.05989 17.8358Z" fill="url(#paint100_linear_500_7468)"/>
<path d="M22.797 27.0261H25.0808C25.9249 27.0261 26.4773 26.3899 26.7282 24.9576C26.9631 23.5828 26.6564 22.9691 25.8052 22.9691L23.5192 22.9691L23.8824 20.9063C24.2812 18.5509 25.4791 17.3873 27.4488 17.3873H27.8253C28.9171 17.3873 29.5174 17.2028 29.5994 16.6806C29.6684 16.3246 29.5691 15.8392 29.4614 15.3047C29.3428 14.7832 29.2195 14.2802 29.0451 13.9973C28.7775 13.5205 28.175 13.2885 27.2194 13.2885C24.8562 13.2885 22.9029 13.9386 21.3734 15.2974C19.8503 16.6454 18.8796 18.4813 18.4514 20.9408L18.0858 22.9691H13.2908C13.2136 22.9691 8.25644 23.5387 8.25644 23.5387L12.8204 24.2475L13.005 24.9297L10.2125 25.1738L13.145 25.606L13.2598 26.1657L4.51562 26.6609C4.51562 26.6609 13.9566 27.0261 14.036 27.0261H17.355L16.4963 31.998L21.9458 31.998" fill="#0994DD"/>
<path fill-rule="evenodd" clip-rule="evenodd" d="M16.4966 31.998H16.8599L17.7518 27.0233L17.3591 27.0285L16.4966 31.998ZM25.9129 22.972L25.6429 22.9627C25.4175 22.9627 23.5192 22.9682 23.5192 22.9682L23.4174 23.4693H26.6852C26.6852 23.4693 26.5251 23.006 25.9129 22.972ZM27.2196 13.2896C27.7062 13.2403 28.5492 13.4381 28.7921 13.6888C29.0451 13.9463 29.133 14.1573 29.133 14.1573C28.7092 13.6269 28.0325 13.5735 27.2626 13.5735C24.9008 13.5735 23.158 14.1539 21.7095 15.4446C20.2295 16.7649 19.2611 18.5561 18.8446 20.9664L18.4824 23.1152L18.441 23.4447L9.53906 23.409L13.3068 22.9638H18.0723L18.4514 20.8743C18.8797 18.407 19.8424 16.6525 21.3734 15.2974C23.8235 13.1209 27.2196 13.2896 27.2196 13.2896Z" fill="#3585D6"/>
<path fill-rule="evenodd" clip-rule="evenodd" d="M48.6326 28.2542C51.0714 28.2542 52.3273 27.4041 52.4007 25.704C52.4007 25.0388 52.1723 24.5101 51.7157 24.1184C51.259 23.7246 50.5511 23.5278 49.5914 23.5278C48.3122 23.5278 47.2966 23.9634 46.5432 24.8305C45.7894 25.6996 45.4121 26.7707 45.4121 28.0462C45.4121 29.044 45.6706 29.8058 46.1865 30.3331C46.7027 30.8601 47.573 31.123 48.7967 31.123C49.6743 31.123 50.4966 31.0026 51.263 30.7631L51.592 29.0028C50.8249 29.2702 50.0806 29.4039 49.3591 29.4039C48.7464 29.4039 48.3148 29.3122 48.0635 29.127C47.8126 28.9423 47.6638 28.6382 47.6185 28.213C47.9474 28.24 48.2854 28.2542 48.6326 28.2542ZM48.1659 26.8806C47.9651 26.8806 47.8191 26.8723 47.7278 26.8541C47.8554 26.3265 48.0633 25.9164 48.351 25.6195C48.6386 25.3244 49.0021 25.1768 49.441 25.1768C49.7147 25.1768 49.9203 25.2437 50.0575 25.3781C50.195 25.5109 50.2631 25.6843 50.2631 25.8968C50.2631 26.5529 49.5645 26.8806 48.1659 26.8806ZM37.339 28.5323L36.9277 30.625L37.3112 30.7485C37.5765 30.8321 37.9736 30.913 38.5036 30.9922C39.0332 31.0708 39.568 31.1105 40.107 31.1105C41.55 31.1105 42.6649 30.8254 43.4509 30.2576C44.2359 29.6897 44.6292 28.8512 44.6292 27.7429C44.6292 27.2527 44.5147 26.828 44.2862 26.467C44.0577 26.1071 43.7742 25.8383 43.437 25.6634C43.0988 25.4886 42.7291 25.3291 42.327 25.1859C41.9246 25.0424 41.555 24.9318 41.217 24.853C40.8788 24.7748 40.596 24.6612 40.3675 24.5139C40.1384 24.3654 40.0246 24.1851 40.0246 23.9729C40.0246 23.6489 40.2279 23.4025 40.6344 23.2316C41.0405 23.0603 41.5226 22.9753 42.0807 22.9753C42.6008 22.9753 43.1243 23.0285 43.649 23.1348C44.174 23.2404 44.5559 23.3581 44.7934 23.4879L45.2045 21.4918C45.1036 21.4456 44.9372 21.3903 44.7047 21.3254C44.4713 21.2615 44.1195 21.1919 43.649 21.1176C43.1784 21.044 42.7105 21.007 42.244 21.007C40.8469 21.007 39.7485 21.3007 38.949 21.8872C38.1491 22.474 37.7495 23.2931 37.7495 24.3469C37.7495 24.8275 37.8642 25.238 38.0923 25.5806C38.3208 25.9226 38.6043 26.1778 38.9425 26.3496C39.2797 26.5201 39.65 26.675 40.0524 26.8131C40.4546 26.952 40.8236 27.063 41.1617 27.1458C41.4997 27.2292 41.7834 27.3525 42.0117 27.5134C42.2402 27.6756 42.3545 27.8667 42.3545 28.0886C42.3545 28.4217 42.1644 28.6751 41.7857 28.8512C41.4061 29.0263 40.9333 29.1141 40.3675 29.1141C39.7648 29.1141 39.156 29.0504 38.545 28.9201C37.9324 28.7911 37.5308 28.6624 37.339 28.5323ZM44.1454 11.2656L44.0446 11.9147C44.0179 12.0863 43.8756 12.2114 43.7023 12.2114H40.9989L40.743 13.948H42.846C42.9467 13.948 43.0433 13.994 43.1068 14.072C43.1727 14.1518 43.2038 14.2544 43.1883 14.3555L43.0971 14.9225C43.0702 15.0927 42.9239 15.2151 42.7535 15.2151H40.526L40.1229 17.8096C40.0969 17.9816 39.9523 18.1056 39.7791 18.1056H38.882C38.7829 18.1056 38.6845 18.0594 38.6205 17.9832C38.557 17.9043 38.5237 17.8014 38.5414 17.6995L39.5639 11.1586C39.5956 10.986 39.7394 10.8627 39.9107 10.8627H43.7993C43.9041 10.8627 43.9982 10.908 44.064 10.9826C44.1309 11.0633 44.1592 11.1643 44.1454 11.2656ZM64.2223 13.9935L64.2524 14.0017L64.0191 15.5036C63.7999 15.8778 63.5456 16.2093 63.2692 16.4851C62.9889 16.7675 62.7328 16.9092 62.5143 16.9092C62.3152 16.9092 62.1607 16.8035 62.052 16.5948C61.9478 16.3949 61.8949 16.1361 61.8949 15.8304C61.8949 15.3438 62.0202 14.8917 62.2656 14.4924C62.5143 14.0856 62.8923 13.8777 63.3934 13.8777C63.7047 13.8777 63.9834 13.9196 64.2223 13.9935ZM65.1743 17.8182L65.8852 13.2364C65.9144 13.0492 65.7918 12.8724 65.6081 12.8387C64.8556 12.69 64.1787 12.612 63.6011 12.612C63.1263 12.612 62.6949 12.6841 62.3155 12.8273C61.9361 12.9719 61.6222 13.16 61.3866 13.3909C61.146 13.6219 60.9437 13.894 60.7819 14.2045C60.6213 14.5121 60.5057 14.8284 60.4439 15.1392C60.3799 15.4465 60.3464 15.7703 60.3464 16.099C60.3464 16.7326 60.4903 17.2503 60.7819 17.6444C61.0723 18.0367 61.4677 18.2282 62.0033 18.2282C62.2454 18.2282 62.4772 18.1889 62.6935 18.109C62.6978 18.107 62.7063 18.1035 62.7183 18.0985C62.8175 18.0573 63.1617 17.9141 63.4735 17.6686C63.7075 17.4844 63.9106 17.2577 63.9106 17.2536L63.9758 17.1848L63.9519 17.7527C63.9512 17.8479 63.9862 17.9405 64.0522 18.0079C64.117 18.0772 64.2065 18.1151 64.3008 18.1151H64.8305C65.0029 18.1151 65.1458 17.9916 65.1743 17.8182ZM68.7473 13.138C68.9758 12.9711 69.3228 12.7485 69.6794 12.6655C69.7932 12.6374 69.9151 12.6703 69.9988 12.7517C70.083 12.8355 70.1207 12.9538 70.0979 13.069L69.9404 13.9302C69.9119 14.0749 69.7981 14.1881 69.655 14.2121C69.39 14.2508 69.1258 14.3576 68.865 14.5203C68.5231 14.7404 68.2389 15.0093 68.0159 15.3208L67.6333 17.8175C67.6056 17.9909 67.461 18.1144 67.2904 18.1144H66.4631C66.3606 18.1144 66.2658 18.0716 66.2022 17.9909C66.1325 17.913 66.1055 17.8119 66.1203 17.7097L66.8531 13.0204C66.8774 12.8495 67.0214 12.7263 67.1936 12.7263H67.7282C67.8218 12.7263 67.9145 12.7657 67.9802 12.8355C68.0437 12.9069 68.0818 12.9984 68.0772 13.0918L68.0409 13.8209L68.1028 13.7536L68.1069 13.7492C68.1488 13.704 68.5009 13.3234 68.7473 13.138ZM52.9681 14.2463C53.0732 14.4435 53.1208 14.7041 53.1208 15.0105C53.1208 15.4998 52.9997 15.9492 52.7561 16.3485C52.5085 16.7572 52.1289 16.9618 51.6256 16.9618C51.3161 16.9618 51.034 16.9224 50.7953 16.8474L50.7702 16.8367L51.0016 15.3353C51.2236 14.9638 51.4738 14.6334 51.7509 14.3547C52.0321 14.0729 52.2862 13.9308 52.5058 13.9308C52.7033 13.9308 52.8576 14.0351 52.9681 14.2463ZM54.6748 14.7412C54.6748 14.1118 54.5281 13.5917 54.2403 13.1987C53.9543 12.8026 53.5519 12.612 53.0207 12.612C52.8099 12.612 52.6077 12.6439 52.3941 12.713C51.6494 12.9496 51.1569 13.5281 51.1117 13.5811L51.1117 13.5811L51.1084 13.5849L51.0476 13.6672L51.0672 13.0886C51.0716 12.9957 51.0336 12.9029 50.9702 12.834C50.9044 12.764 50.8141 12.7271 50.7182 12.7271H50.19C50.018 12.7271 49.8739 12.8502 49.849 13.0212L48.7796 19.8222C48.7624 19.9245 48.7948 20.0267 48.8599 20.1078C48.9263 20.1828 49.0206 20.2286 49.1208 20.2286H49.9431C50.1128 20.2286 50.256 20.1028 50.2845 19.9339L50.4648 18.8194C50.4648 18.8121 50.4648 18.8046 50.468 18.7972L50.5306 18.1633L50.5671 18.1694C50.9101 18.2145 51.201 18.2376 51.4328 18.2376C52.0187 18.2376 52.5346 18.1306 52.9726 17.9169C53.4098 17.7025 53.751 17.4183 53.9828 17.0655C54.2175 16.7095 54.3978 16.3348 54.5052 15.9495C54.619 15.5648 54.6748 15.1572 54.6748 14.7412ZM72.7004 12.7271H73.3463C73.4512 12.7271 73.5471 12.7713 73.6146 12.8543C73.6786 12.9341 73.7043 13.0417 73.6859 13.1453L73.5894 13.6475C73.5576 13.8109 73.4132 13.931 73.2488 13.931H72.5161L72.1635 16.2304C72.1551 16.2963 72.1544 16.3414 72.1544 16.3661C72.1544 16.653 72.2369 16.7383 72.2665 16.7689L72.2698 16.7723C72.33 16.8264 72.4487 16.8516 72.499 16.8584C72.519 16.8641 72.5558 16.8657 72.6128 16.8657C72.6395 16.8657 72.6712 16.8657 72.7028 16.8641C72.8264 16.8641 72.8564 16.8697 72.8703 16.8731C72.8803 16.8771 72.8886 16.8811 72.8976 16.8853L72.8977 16.8853L72.8977 16.8854C72.9054 16.889 72.9136 16.8929 72.9237 16.8972C72.9499 16.9142 72.9759 16.9323 72.9962 16.9527C73.0777 17.0282 73.1148 17.1392 73.101 17.2462L73.0458 17.7633C73.0302 17.8758 72.9655 17.9754 72.863 18.0289C72.8517 18.0367 72.8386 18.0448 72.8223 18.0511C72.8133 18.055 72.7443 18.079 72.7062 18.0904C72.6582 18.109 72.2576 18.2282 71.9716 18.2282C71.4995 18.2282 71.138 18.1191 70.9028 17.9022C70.6665 17.6811 70.5503 17.3609 70.5503 16.9166C70.5503 16.7457 70.5655 16.5805 70.5924 16.4251L70.9767 13.931H70.7617C70.6593 13.931 70.56 13.8857 70.4952 13.8068C70.4291 13.7271 70.4014 13.6244 70.4177 13.5233L70.4958 13.0204C70.525 12.8502 70.6679 12.7271 70.841 12.7271H71.1987L71.5133 11.6405C71.5563 11.4932 71.6934 11.3898 71.8471 11.3898H72.499C72.6014 11.3898 72.6963 11.4342 72.763 11.5131C72.8295 11.5903 72.8564 11.6932 72.8412 11.7959L72.7004 12.7271ZM59.9411 12.7263C60.05 12.7263 60.1533 12.7773 60.2167 12.8652C60.2818 12.9538 60.306 13.069 60.2728 13.175C60.1825 13.493 60.0185 13.8332 59.7973 14.189C59.452 14.7404 59.1066 15.1728 58.7686 15.4842L58.7514 15.4993L59.5665 17.6235C59.5837 17.6678 59.5959 17.7147 59.5959 17.7625C59.5959 17.9555 59.4398 18.1144 59.2471 18.1144H58.3522C58.2088 18.1144 58.0836 18.0281 58.0315 17.8941L57.3214 16.0757H56.802L56.5319 17.8175C56.504 17.9909 56.3592 18.1144 56.1885 18.1144H55.3629C55.2605 18.1144 55.1646 18.0716 55.0987 17.9909C55.034 17.913 55.0028 17.8119 55.0216 17.7097L56.0487 11.1573C56.0738 10.9848 56.2177 10.8615 56.3914 10.8615H57.2171C57.3214 10.8615 57.4162 10.9067 57.4798 10.9832C57.5472 11.063 57.575 11.1664 57.5601 11.2683L56.9841 14.8992L57.0312 14.8893C57.4053 14.8237 57.5151 14.7707 57.5865 14.7363L57.5895 14.7349L57.6203 14.7168C57.8193 14.5917 58.0535 14.3075 58.3322 13.8481C58.5355 13.5226 58.6718 13.2299 58.7465 12.9769C58.7914 12.8289 58.9271 12.7263 59.0791 12.7263H59.9411ZM49.0407 11.9942C48.874 12.1733 48.6213 12.2639 48.2758 12.2639C48.0242 12.2639 47.8396 12.2095 47.7143 12.0994C47.594 11.9892 47.5331 11.8241 47.5331 11.6038C47.5331 11.3203 47.6112 11.0959 47.7795 10.9127C47.9419 10.7335 48.1978 10.644 48.5393 10.644C48.7919 10.644 48.9837 10.7006 49.104 10.8101C49.2252 10.9186 49.2859 11.0837 49.2859 11.3057C49.2859 11.5875 49.2072 11.8134 49.0407 11.9942ZM47.7363 12.7263H48.5545C48.6561 12.7263 48.7504 12.7691 48.8171 12.8487C48.883 12.9268 48.9138 13.0295 48.8959 13.1313L48.1677 17.8175C48.1394 17.9909 47.9962 18.1144 47.8239 18.1144H47.0082C46.9067 18.1144 46.8092 18.0716 46.7423 17.9909C46.6782 17.913 46.6481 17.8119 46.6658 17.7097L47.3922 13.0204C47.4202 12.8495 47.5646 12.7263 47.7363 12.7263ZM46.2475 11.2667C46.267 11.1654 46.2335 11.0637 46.1711 10.9821C46.1037 10.9075 46.0093 10.8622 45.9069 10.8622H45.0783C44.9076 10.8622 44.7639 10.9862 44.7377 11.1598C44.7278 11.2205 43.8814 16.6775 43.8746 16.7294C43.8541 16.8477 43.8407 16.962 43.8407 17.0633C43.8407 17.4368 43.9567 17.7286 44.1841 17.9265C44.4126 18.1282 44.7488 18.2282 45.1815 18.2282C45.3526 18.2282 45.5997 18.1579 45.6876 18.1237C45.7747 18.0904 45.8455 18.055 45.9023 18.0147C45.9598 17.972 46.0061 17.8891 46.0166 17.7901L46.0612 17.3244C46.0695 17.2222 46.0355 17.1199 45.967 17.0456C45.9141 16.9908 45.8455 16.9527 45.772 16.942C45.7462 16.9386 45.6112 16.906 45.5505 16.8477C45.4869 16.787 45.4546 16.668 45.4546 16.4931C45.4546 16.458 45.4576 16.4029 45.4648 16.312L46.2475 11.2667ZM56.4625 30.8049L56.6276 29.1696C56.3438 29.2532 56.1065 29.2944 55.9147 29.2944C55.6777 29.2944 55.5198 29.257 55.4418 29.1843C55.3638 29.11 55.3259 28.9617 55.3259 28.7403C55.3259 28.6934 55.3298 28.6155 55.3393 28.5046L56.5317 20.8268H54.3937L53.1193 29.0452C53.0919 29.2108 53.0779 29.3636 53.0779 29.5018C53.0779 30.0203 53.2358 30.417 53.5508 30.6939C53.8663 30.9706 54.3202 31.1105 54.9145 31.1105C55.4443 31.1105 55.9603 31.008 56.4625 30.8049ZM60.9279 29.1696L60.7628 30.8049C60.2606 31.008 59.7439 31.1105 59.214 31.1105C58.6209 31.1105 58.1655 30.9706 57.8511 30.6939C57.535 30.417 57.3782 30.0203 57.3782 29.5018C57.3782 29.3636 57.3912 29.2108 57.4189 29.0452L58.6929 20.8268H60.832L59.6389 28.5046C59.6301 28.6155 59.6251 28.6934 59.6251 28.7403C59.6251 28.9617 59.6641 29.11 59.7421 29.1843C59.8191 29.257 59.9769 29.2944 60.2142 29.2944C60.4061 29.2944 60.6432 29.2532 60.9279 29.1696ZM68.5793 25.704C68.5062 27.4041 67.2506 28.2542 64.811 28.2542C64.4642 28.2542 64.126 28.24 63.797 28.213C63.8427 28.6382 63.9911 28.9423 64.2423 29.127C64.4932 29.3122 64.9248 29.4039 65.5376 29.4039C66.2591 29.4039 67.0038 29.2702 67.7707 29.0028L67.4423 30.7631C66.6755 31.0026 65.853 31.123 64.9754 31.123C63.7514 31.123 62.8811 30.8601 62.3652 30.3331C61.8483 29.8058 61.5908 29.044 61.5908 28.0462C61.5908 26.7707 61.9678 25.6996 62.7211 24.8305C63.4753 23.9634 64.4911 23.5278 65.77 23.5278C66.7298 23.5278 67.4375 23.7246 67.8941 24.1184C68.3506 24.5101 68.5793 25.0388 68.5793 25.704ZM63.9065 26.8541C63.9975 26.8723 64.1436 26.8806 64.3443 26.8806C65.743 26.8806 66.442 26.5529 66.442 25.8968C66.442 25.6843 66.373 25.5109 66.2362 25.3781C66.0989 25.2437 65.8936 25.1768 65.6193 25.1768C65.1805 25.1768 64.8173 25.3244 64.5298 25.6195C64.242 25.9164 64.0343 26.3265 63.9065 26.8541ZM69.0074 30.9564L70.1448 23.6521H71.8302L71.7481 25.4125C72.4878 24.1369 73.4108 23.5005 74.5161 23.5005H74.6395L74.2284 25.7035C73.7628 25.7035 73.3013 25.8495 72.8443 26.1403C72.3871 26.4313 72.013 26.7843 71.7208 27.2005L71.1453 30.9564H69.0074ZM83.5462 30.9564H85.7931L87.3282 21.1574H85.0804L84.4644 25.1211H80.6411L81.257 21.1574H79.0239L77.4889 30.9564H79.7222L80.3258 27.0894H84.1493L83.5462 30.9564ZM95.1927 23.6531L94.0408 30.9572H92.3694L92.4239 29.4043C91.6665 30.5409 90.693 31.1088 89.506 31.1088C88.8662 31.1088 88.3867 30.9289 88.0666 30.5694C87.7466 30.2082 87.5872 29.7284 87.5872 29.1274C87.5872 28.8776 87.6061 28.6565 87.6417 28.4625L88.4095 23.6531H90.5341L89.8618 27.9222C89.8341 28.0599 89.8211 28.2075 89.8211 28.3646C89.8211 28.9107 90.0128 29.1825 90.3964 29.1825C90.698 29.1825 91.036 29.012 91.4106 28.6696C91.7852 28.3289 92.1369 27.8988 92.4653 27.381L93.0546 23.6531H95.1927ZM100.878 23.5017C101.6 23.5017 102.157 23.77 102.549 24.3055C102.942 24.8406 103.139 25.5384 103.139 26.3978C103.139 26.8316 103.094 27.2626 103.002 27.6866C102.911 28.1112 102.755 28.5345 102.536 28.9547C102.317 29.375 102.043 29.7417 101.714 30.0568C101.385 30.3706 100.96 30.6247 100.439 30.8185C99.9192 31.0132 99.3389 31.1102 98.6996 31.1102C97.8317 31.1102 96.7809 30.9758 95.5472 30.7076L97.0954 20.8265H99.2195L98.7539 23.9726L98.5899 24.7352C99.1928 23.9117 99.9548 23.5017 100.878 23.5017ZM100.192 25.3584C99.9089 25.3584 99.5824 25.5429 99.2127 25.913C98.8419 26.2827 98.5112 26.7162 98.2194 27.215L97.9171 29.1693C98.2371 29.2708 98.6029 29.3218 99.0132 29.3218C99.6715 29.3218 100.162 29.0562 100.487 28.5243C100.811 27.9942 100.973 27.405 100.973 26.7574C100.973 26.3516 100.904 26.0166 100.768 25.7537C100.631 25.4892 100.439 25.3584 100.192 25.3584Z" fill="#3392F3"/>
<defs>
<linearGradient id="paint0_linear_500_7468" x1="32.9086" y1="2.11045" x2="32.9077" y2="5.98844" gradientUnits="userSpaceOnUse">
<stop stop-color="#F5F014"/>
<stop offset="1" stop-color="#FAB320"/>
</linearGradient>
<linearGradient id="paint1_linear_500_7468" x1="86.0629" y1="-3.84657" x2="86.2081" y2="12.2803" gradientUnits="userSpaceOnUse">
<stop stop-color="#FEE802"/>
<stop offset="0.005102" stop-color="#FEE802"/>
<stop offset="1" stop-color="#FAB320"/>
</linearGradient>
<linearGradient id="paint2_linear_500_7468" x1="12.8005" y1="-0.556288" x2="17.4296" y2="8.51124" gradientUnits="userSpaceOnUse">
<stop stop-color="#989A82"/>
<stop offset="0.879013" stop-color="#7C7C6A"/>
<stop offset="1" stop-color="#7C7C6A"/>
</linearGradient>
<linearGradient id="paint3_linear_500_7468" x1="20.7382" y1="0.405373" x2="22.4572" y2="11.5841" gradientUnits="userSpaceOnUse">
<stop stop-color="#FBFCE0"/>
<stop offset="0.831601" stop-color="#BFBF9F"/>
<stop offset="1" stop-color="#BFBF9F"/>
</linearGradient>
<linearGradient id="paint4_linear_500_7468" x1="7.15898" y1="3.78316" x2="7.45593" y2="2.11026" gradientUnits="userSpaceOnUse">
<stop stop-color="#FBFCE0"/>
<stop offset="0.831601" stop-color="#BFBF9F"/>
<stop offset="1" stop-color="#BFBF9F"/>
</linearGradient>
<linearGradient id="paint5_linear_500_7468" x1="9.29473" y1="4.58696" x2="9.45958" y2="2.77089" gradientUnits="userSpaceOnUse">
<stop stop-color="#FBFCE0"/>
<stop offset="0.831601" stop-color="#BFBF9F"/>
<stop offset="1" stop-color="#BFBF9F"/>
</linearGradient>
<linearGradient id="paint6_linear_500_7468" x1="12.5862" y1="5.55259" x2="12.7719" y2="3.59869" gradientUnits="userSpaceOnUse">
<stop stop-color="#FBFCE0"/>
<stop offset="0.831601" stop-color="#BFBF9F"/>
<stop offset="1" stop-color="#BFBF9F"/>
</linearGradient>
<linearGradient id="paint7_linear_500_7468" x1="66.2527" y1="-3.01557" x2="66.5201" y2="13.6193" gradientUnits="userSpaceOnUse">
<stop stop-color="#F3EF13"/>
<stop offset="1" stop-color="#FBC709"/>
</linearGradient>
<linearGradient id="paint8_linear_500_7468" x1="0.562543" y1="4.57892" x2="31.7542" y2="4.57892" gradientUnits="userSpaceOnUse">
<stop stop-color="#F3EE04"/>
<stop offset="0.503766" stop-color="#F3EE04"/>
<stop offset="1" stop-color="#FAB320"/>
</linearGradient>
<linearGradient id="paint9_linear_500_7468" x1="16.3103" y1="-6.68387" x2="35.4485" y2="22.2458" gradientUnits="userSpaceOnUse">
<stop stop-color="#F9DD06"/>
<stop offset="1" stop-color="#FABD0C"/>
</linearGradient>
<linearGradient id="paint10_linear_500_7468" x1="37.7329" y1="-4.81504" x2="42.0077" y2="25.8041" gradientUnits="userSpaceOnUse">
<stop stop-color="#F9DD06"/>
<stop offset="1" stop-color="#FABD0C"/>
</linearGradient>
<linearGradient id="paint11_linear_500_7468" x1="38.163" y1="-5.11928" x2="42.3403" y2="26.3072" gradientUnits="userSpaceOnUse">
<stop stop-color="#F9DD06"/>
<stop offset="1" stop-color="#FABD0C"/>
</linearGradient>
<linearGradient id="paint12_linear_500_7468" x1="37.107" y1="-3.49702" x2="41.1851" y2="27.0587" gradientUnits="userSpaceOnUse">
<stop stop-color="#F9DD06"/>
<stop offset="1" stop-color="#FABD0C"/>
</linearGradient>
<linearGradient id="paint13_linear_500_7468" x1="36.4209" y1="-2.86721" x2="40.4899" y2="27.6728" gradientUnits="userSpaceOnUse">
<stop stop-color="#F9DD06"/>
<stop offset="1" stop-color="#FABD0C"/>
</linearGradient>
<linearGradient id="paint14_linear_500_7468" x1="35.6922" y1="-2.2044" x2="39.7615" y2="28.304" gradientUnits="userSpaceOnUse">
<stop stop-color="#F9DD06"/>
<stop offset="1" stop-color="#FABD0C"/>
</linearGradient>
<linearGradient id="paint15_linear_500_7468" x1="34.962" y1="-1.62109" x2="39.0315" y2="28.889" gradientUnits="userSpaceOnUse">
<stop stop-color="#F9DD06"/>
<stop offset="1" stop-color="#FABD0C"/>
</linearGradient>
<linearGradient id="paint16_linear_500_7468" x1="34.1362" y1="-0.506411" x2="38.1356" y2="29.5543" gradientUnits="userSpaceOnUse">
<stop stop-color="#F9DD06"/>
<stop offset="1" stop-color="#FABD0C"/>
</linearGradient>
<linearGradient id="paint17_linear_500_7468" x1="33.701" y1="-0.820378" x2="37.8434" y2="30.1434" gradientUnits="userSpaceOnUse">
<stop stop-color="#F9DD06"/>
<stop offset="1" stop-color="#FABD0C"/>
</linearGradient>
<linearGradient id="paint18_linear_500_7468" x1="32.8186" y1="0.206356" x2="36.9097" y2="30.7647" gradientUnits="userSpaceOnUse">
<stop stop-color="#F9DD06"/>
<stop offset="1" stop-color="#FABD0C"/>
</linearGradient>
<linearGradient id="paint19_linear_500_7468" x1="32.1073" y1="0.89366" x2="36.1883" y2="31.4041" gradientUnits="userSpaceOnUse">
<stop stop-color="#F9DD06"/>
<stop offset="1" stop-color="#FABD0C"/>
</linearGradient>
<linearGradient id="paint20_linear_500_7468" x1="31.9109" y1="0.601794" x2="36.0897" y2="32.0241" gradientUnits="userSpaceOnUse">
<stop stop-color="#F9DD06"/>
<stop offset="1" stop-color="#FABD0C"/>
</linearGradient>
<linearGradient id="paint21_linear_500_7468" x1="30.6965" y1="2.10851" x2="34.7819" y2="32.6381" gradientUnits="userSpaceOnUse">
<stop stop-color="#F9DD06"/>
<stop offset="1" stop-color="#FABD0C"/>
</linearGradient>
<linearGradient id="paint22_linear_500_7468" x1="30.148" y1="2.71335" x2="34.1892" y2="33.227" gradientUnits="userSpaceOnUse">
<stop stop-color="#F9DD06"/>
<stop offset="1" stop-color="#FABD0C"/>
</linearGradient>
<linearGradient id="paint23_linear_500_7468" x1="29.7756" y1="2.53823" x2="33.9819" y2="33.9803" gradientUnits="userSpaceOnUse">
<stop stop-color="#F9DD06"/>
<stop offset="1" stop-color="#FABD0C"/>
</linearGradient>
<linearGradient id="paint24_linear_500_7468" x1="28.4416" y1="4.37365" x2="32.4364" y2="34.4347" gradientUnits="userSpaceOnUse">
<stop stop-color="#F9DD06"/>
<stop offset="1" stop-color="#FABD0C"/>
</linearGradient>
<linearGradient id="paint25_linear_500_7468" x1="27.7491" y1="5.00058" x2="31.7417" y2="35.0632" gradientUnits="userSpaceOnUse">
<stop stop-color="#F9DD06"/>
<stop offset="1" stop-color="#FABD0C"/>
</linearGradient>
<linearGradient id="paint26_linear_500_7468" x1="26.9844" y1="5.5922" x2="30.987" y2="35.6594" gradientUnits="userSpaceOnUse">
<stop stop-color="#F9DD06"/>
<stop offset="1" stop-color="#FABD0C"/>
</linearGradient>
<linearGradient id="paint27_linear_500_7468" x1="26.4295" y1="5.80422" x2="30.521" y2="36.3456" gradientUnits="userSpaceOnUse">
<stop stop-color="#F9DD06"/>
<stop offset="1" stop-color="#FABD0C"/>
</linearGradient>
<linearGradient id="paint28_linear_500_7468" x1="26.4886" y1="5.7394" x2="30.6418" y2="37.1411" gradientUnits="userSpaceOnUse">
<stop stop-color="#F9DD06"/>
<stop offset="1" stop-color="#FABD0C"/>
</linearGradient>
<linearGradient id="paint29_linear_500_7468" x1="25.5332" y1="6.33446" x2="29.7453" y2="37.7569" gradientUnits="userSpaceOnUse">
<stop stop-color="#F9DD06"/>
<stop offset="1" stop-color="#FABD0C"/>
</linearGradient>
<linearGradient id="paint30_linear_500_7468" x1="23.5126" y1="8.70073" x2="27.4317" y2="37.9388" gradientUnits="userSpaceOnUse">
<stop stop-color="#F9DD06"/>
<stop offset="1" stop-color="#FABD0C"/>
</linearGradient>
<linearGradient id="paint31_linear_500_7468" x1="23.4373" y1="8.61297" x2="27.4437" y2="38.7138" gradientUnits="userSpaceOnUse">
<stop stop-color="#F9DD06"/>
<stop offset="1" stop-color="#FABD0C"/>
</linearGradient>
<linearGradient id="paint32_linear_500_7468" x1="13.7659" y1="6.40872" x2="22.0178" y2="39.1644" gradientUnits="userSpaceOnUse">
<stop stop-color="#F9DD06"/>
<stop offset="1" stop-color="#FABD0C"/>
</linearGradient>
<linearGradient id="paint33_linear_500_7468" x1="-0.806185" y1="-0.276664" x2="26.8704" y2="21.8961" gradientUnits="userSpaceOnUse">
<stop stop-color="#F9DD06"/>
<stop offset="1" stop-color="#FABD0C"/>
</linearGradient>
<linearGradient id="paint34_linear_500_7468" x1="-5.62646" y1="-12.2522" x2="23.2074" y2="-5.00927" gradientUnits="userSpaceOnUse">
<stop stop-color="#F9DD06"/>
<stop offset="1" stop-color="#FABD0C"/>
</linearGradient>
<linearGradient id="paint35_linear_500_7468" x1="-5.67966" y1="-15.5253" x2="21.3758" y2="-10.4806" gradientUnits="userSpaceOnUse">
<stop stop-color="#F9DD06"/>
<stop offset="1" stop-color="#FABD0C"/>
</linearGradient>
<linearGradient id="paint36_linear_500_7468" x1="-5.35321" y1="-17.8188" x2="22.7648" y2="-12.5936" gradientUnits="userSpaceOnUse">
<stop stop-color="#F9DD06"/>
<stop offset="1" stop-color="#FABD0C"/>
</linearGradient>
<linearGradient id="paint37_linear_500_7468" x1="-4.74803" y1="-18.37" x2="23.3652" y2="-13.1568" gradientUnits="userSpaceOnUse">
<stop stop-color="#F9DD06"/>
<stop offset="1" stop-color="#FABD0C"/>
</linearGradient>
<linearGradient id="paint38_linear_500_7468" x1="-4.12858" y1="-18.9427" x2="23.9644" y2="-13.7606" gradientUnits="userSpaceOnUse">
<stop stop-color="#F9DD06"/>
<stop offset="1" stop-color="#FABD0C"/>
</linearGradient>
<linearGradient id="paint39_linear_500_7468" x1="-3.42657" y1="-18.8213" x2="24.2871" y2="-13.7004" gradientUnits="userSpaceOnUse">
<stop stop-color="#F9DD06"/>
<stop offset="1" stop-color="#FABD0C"/>
</linearGradient>
<linearGradient id="paint40_linear_500_7468" x1="-2.73627" y1="-18.3393" x2="24.2943" y2="-13.3385" gradientUnits="userSpaceOnUse">
<stop stop-color="#F9DD06"/>
<stop offset="1" stop-color="#FABD0C"/>
</linearGradient>
<linearGradient id="paint41_linear_500_7468" x1="-2.10999" y1="-18.7652" x2="24.9585" y2="-13.7214" gradientUnits="userSpaceOnUse">
<stop stop-color="#F9DD06"/>
<stop offset="1" stop-color="#FABD0C"/>
</linearGradient>
<linearGradient id="paint42_linear_500_7468" x1="-1.64779" y1="-20.9773" x2="26.4881" y2="-15.7743" gradientUnits="userSpaceOnUse">
<stop stop-color="#F9DD06"/>
<stop offset="1" stop-color="#FABD0C"/>
</linearGradient>
<linearGradient id="paint43_linear_500_7468" x1="-0.902876" y1="-19.3266" x2="25.7777" y2="-14.3593" gradientUnits="userSpaceOnUse">
<stop stop-color="#F9DD06"/>
<stop offset="1" stop-color="#FABD0C"/>
</linearGradient>
<linearGradient id="paint44_linear_500_7468" x1="-0.329576" y1="-20.4562" x2="26.7362" y2="-15.4404" gradientUnits="userSpaceOnUse">
<stop stop-color="#F9DD06"/>
<stop offset="1" stop-color="#FABD0C"/>
</linearGradient>
<linearGradient id="paint45_linear_500_7468" x1="0.269593" y1="-21.7196" x2="28.0317" y2="-16.5169" gradientUnits="userSpaceOnUse">
<stop stop-color="#F9DD06"/>
<stop offset="1" stop-color="#FABD0C"/>
</linearGradient>
<linearGradient id="paint46_linear_500_7468" x1="0.881684" y1="-21.4228" x2="27.9217" y2="-16.3972" gradientUnits="userSpaceOnUse">
<stop stop-color="#F9DD06"/>
<stop offset="1" stop-color="#FABD0C"/>
</linearGradient>
<linearGradient id="paint47_linear_500_7468" x1="1.4543" y1="-23.419" x2="29.5967" y2="-18.1872" gradientUnits="userSpaceOnUse">
<stop stop-color="#F9DD06"/>
<stop offset="1" stop-color="#FABD0C"/>
</linearGradient>
<linearGradient id="paint48_linear_500_7468" x1="2.0381" y1="-22.6391" x2="29.0819" y2="-17.6465" gradientUnits="userSpaceOnUse">
<stop stop-color="#F9DD06"/>
<stop offset="1" stop-color="#FABD0C"/>
</linearGradient>
<linearGradient id="paint49_linear_500_7468" x1="2.68151" y1="-24.4836" x2="30.7952" y2="-19.2825" gradientUnits="userSpaceOnUse">
<stop stop-color="#F9DD06"/>
<stop offset="1" stop-color="#FABD0C"/>
</linearGradient>
<linearGradient id="paint50_linear_500_7468" x1="3.51934" y1="-23.3087" x2="31.5206" y2="-17.6786" gradientUnits="userSpaceOnUse">
<stop stop-color="#F9DD06"/>
<stop offset="1" stop-color="#FABD0C"/>
</linearGradient>
<linearGradient id="paint51_linear_500_7468" x1="4.33895" y1="-20.274" x2="35.0046" y2="-12.6593" gradientUnits="userSpaceOnUse">
<stop stop-color="#F9DD06"/>
<stop offset="1" stop-color="#FABD0C"/>
</linearGradient>
<linearGradient id="paint52_linear_500_7468" x1="22.143" y1="-4.17235" x2="33.9196" y2="30.2796" gradientUnits="userSpaceOnUse">
<stop stop-color="#F9DD06"/>
<stop offset="1" stop-color="#FABD0C"/>
</linearGradient>
<linearGradient id="paint53_linear_500_7468" x1="32.6787" y1="-2.32741" x2="37.9496" y2="29.6203" gradientUnits="userSpaceOnUse">
<stop stop-color="#F9DD06"/>
<stop offset="1" stop-color="#FABD0C"/>
</linearGradient>
<linearGradient id="paint54_linear_500_7468" x1="35.9592" y1="-2.01811" x2="39.9014" y2="28.0872" gradientUnits="userSpaceOnUse">
<stop stop-color="#F9DD06"/>
<stop offset="1" stop-color="#FABD0C"/>
</linearGradient>
<linearGradient id="paint55_linear_500_7468" x1="37.6394" y1="-2.87056" x2="41.6649" y2="28.0425" gradientUnits="userSpaceOnUse">
<stop stop-color="#F9DD06"/>
<stop offset="1" stop-color="#FABD0C"/>
</linearGradient>
<linearGradient id="paint56_linear_500_7468" x1="38.7217" y1="-3.64467" x2="42.8204" y2="27.7085" gradientUnits="userSpaceOnUse">
<stop stop-color="#F9DD06"/>
<stop offset="1" stop-color="#FABD0C"/>
</linearGradient>
<linearGradient id="paint57_linear_500_7468" x1="38.5759" y1="-4.00522" x2="42.5503" y2="26.4725" gradientUnits="userSpaceOnUse">
<stop stop-color="#F9DD06"/>
<stop offset="1" stop-color="#FABD0C"/>
</linearGradient>
<linearGradient id="paint58_linear_500_7468" x1="39.6949" y1="-4.78899" x2="43.7518" y2="26.1737" gradientUnits="userSpaceOnUse">
<stop stop-color="#F9DD06"/>
<stop offset="1" stop-color="#FABD0C"/>
</linearGradient>
<linearGradient id="paint59_linear_500_7468" x1="38.7595" y1="-4.77785" x2="42.6051" y2="24.5167" gradientUnits="userSpaceOnUse">
<stop stop-color="#F9DD06"/>
<stop offset="1" stop-color="#FABD0C"/>
</linearGradient>
<linearGradient id="paint60_linear_500_7468" x1="39.809" y1="-5.55224" x2="43.7038" y2="24.1044" gradientUnits="userSpaceOnUse">
<stop stop-color="#F9DD06"/>
<stop offset="1" stop-color="#FABD0C"/>
</linearGradient>
<linearGradient id="paint61_linear_500_7468" x1="41.7307" y1="-6.72686" x2="45.8118" y2="24.2662" gradientUnits="userSpaceOnUse">
<stop stop-color="#F9DD06"/>
<stop offset="1" stop-color="#FABD0C"/>
</linearGradient>
<linearGradient id="paint62_linear_500_7468" x1="42.3082" y1="-7.32547" x2="46.3942" y2="23.6012" gradientUnits="userSpaceOnUse">
<stop stop-color="#F9DD06"/>
<stop offset="1" stop-color="#FABD0C"/>
</linearGradient>
<linearGradient id="paint63_linear_500_7468" x1="42.019" y1="-7.33797" x2="45.898" y2="22.2772" gradientUnits="userSpaceOnUse">
<stop stop-color="#F9DD06"/>
<stop offset="1" stop-color="#FABD0C"/>
</linearGradient>
<linearGradient id="paint64_linear_500_7468" x1="43.1593" y1="-8.18314" x2="47.0972" y2="21.8975" gradientUnits="userSpaceOnUse">
<stop stop-color="#F9DD06"/>
<stop offset="1" stop-color="#FABD0C"/>
</linearGradient>
<linearGradient id="paint65_linear_500_7468" x1="44.0187" y1="-8.76972" x2="47.9315" y2="21.3104" gradientUnits="userSpaceOnUse">
<stop stop-color="#F9DD06"/>
<stop offset="1" stop-color="#FABD0C"/>
</linearGradient>
<linearGradient id="paint66_linear_500_7468" x1="45.2657" y1="-9.85647" x2="49.3312" y2="21.0825" gradientUnits="userSpaceOnUse">
<stop stop-color="#F9DD06"/>
<stop offset="1" stop-color="#FABD0C"/>
</linearGradient>
<linearGradient id="paint67_linear_500_7468" x1="46.8236" y1="-10.9919" x2="50.9799" y2="20.8405" gradientUnits="userSpaceOnUse">
<stop stop-color="#F9DD06"/>
<stop offset="1" stop-color="#FABD0C"/>
</linearGradient>
<linearGradient id="paint68_linear_500_7468" x1="47.5542" y1="-11.649" x2="51.7082" y2="20.2009" gradientUnits="userSpaceOnUse">
<stop stop-color="#F9DD06"/>
<stop offset="1" stop-color="#FABD0C"/>
</linearGradient>
<linearGradient id="paint69_linear_500_7468" x1="48.0531" y1="-12.3364" x2="52.2422" y2="19.5079" gradientUnits="userSpaceOnUse">
<stop stop-color="#F9DD06"/>
<stop offset="1" stop-color="#FABD0C"/>
</linearGradient>
<linearGradient id="paint70_linear_500_7468" x1="46.5022" y1="-11.0942" x2="50.2847" y2="17.7384" gradientUnits="userSpaceOnUse">
<stop stop-color="#F9DD06"/>
<stop offset="1" stop-color="#FABD0C"/>
</linearGradient>
<linearGradient id="paint71_linear_500_7468" x1="48.7137" y1="-12.7559" x2="52.6584" y2="17.7222" gradientUnits="userSpaceOnUse">
<stop stop-color="#F9DD06"/>
<stop offset="1" stop-color="#FABD0C"/>
</linearGradient>
<linearGradient id="paint72_linear_500_7468" x1="49.0703" y1="-13.4059" x2="53.1084" y2="17.1211" gradientUnits="userSpaceOnUse">
<stop stop-color="#F9DD06"/>
<stop offset="1" stop-color="#FABD0C"/>
</linearGradient>
<linearGradient id="paint73_linear_500_7468" x1="52.251" y1="-10.6085" x2="56.1716" y2="19.4641" gradientUnits="userSpaceOnUse">
<stop stop-color="#F9DD06"/>
<stop offset="1" stop-color="#FABD0C"/>
</linearGradient>
<linearGradient id="paint74_linear_500_7468" x1="50.4715" y1="-11.7675" x2="55.1449" y2="18.7238" gradientUnits="userSpaceOnUse">
<stop stop-color="#F9DD06"/>
<stop offset="1" stop-color="#FABD0C"/>
</linearGradient>
<linearGradient id="paint75_linear_500_7468" x1="28.6459" y1="-11.9152" x2="46.2253" y2="14.9549" gradientUnits="userSpaceOnUse">
<stop stop-color="#F9DD06"/>
<stop offset="1" stop-color="#FABD0C"/>
</linearGradient>
<linearGradient id="paint76_linear_500_7468" x1="18.4985" y1="-14.718" x2="52.4057" y2="-2.23516" gradientUnits="userSpaceOnUse">
<stop stop-color="#F9DD06"/>
<stop offset="1" stop-color="#FABD0C"/>
</linearGradient>
<linearGradient id="paint77_linear_500_7468" x1="9.73054" y1="7.23606" x2="10.087" y2="10.7202" gradientUnits="userSpaceOnUse">
<stop stop-color="#FEE802"/>
<stop offset="1" stop-color="#FAB320"/>
</linearGradient>
<linearGradient id="paint78_linear_500_7468" x1="10.8606" y1="23.8032" x2="0.813075" y2="20.8706" gradientUnits="userSpaceOnUse">
<stop stop-color="#FEE802"/>
<stop offset="0.623743" stop-color="#FEE802"/>
<stop offset="1" stop-color="#FAB320"/>
</linearGradient>
<linearGradient id="paint79_linear_500_7468" x1="9.31601" y1="23.4728" x2="-4.29394" y2="16.5292" gradientUnits="userSpaceOnUse">
<stop stop-color="#FAB320"/>
<stop offset="0.554376" stop-color="#FEE802"/>
<stop offset="1" stop-color="#FEE802"/>
</linearGradient>
<linearGradient id="paint80_linear_500_7468" x1="16.8267" y1="2.97135" x2="25.8489" y2="32.4797" gradientUnits="userSpaceOnUse">
<stop stop-color="#F9DD06"/>
<stop offset="1" stop-color="#FABD0C"/>
</linearGradient>
<linearGradient id="paint81_linear_500_7468" x1="21.7319" y1="4.32296" x2="27.1683" y2="31.2381" gradientUnits="userSpaceOnUse">
<stop stop-color="#F9DD06"/>
<stop offset="1" stop-color="#FABD0C"/>
</linearGradient>
<linearGradient id="paint82_linear_500_7468" x1="22.3194" y1="3.7638" x2="27.7155" y2="30.6697" gradientUnits="userSpaceOnUse">
<stop stop-color="#F9DD06"/>
<stop offset="1" stop-color="#FABD0C"/>
</linearGradient>
<linearGradient id="paint83_linear_500_7468" x1="22.3191" y1="3.47316" x2="27.6108" y2="29.7598" gradientUnits="userSpaceOnUse">
<stop stop-color="#F9DD06"/>
<stop offset="1" stop-color="#FABD0C"/>
</linearGradient>
<linearGradient id="paint84_linear_500_7468" x1="23.5101" y1="2.43381" x2="28.9547" y2="29.6493" gradientUnits="userSpaceOnUse">
<stop stop-color="#F9DD06"/>
<stop offset="1" stop-color="#FABD0C"/>
</linearGradient>
<linearGradient id="paint85_linear_500_7468" x1="23.5502" y1="2.17114" x2="28.883" y2="28.7693" gradientUnits="userSpaceOnUse">
<stop stop-color="#F9DD06"/>
<stop offset="1" stop-color="#FABD0C"/>
</linearGradient>
<linearGradient id="paint86_linear_500_7468" x1="14.9828" y1="6.92007" x2="22.2913" y2="34.0475" gradientUnits="userSpaceOnUse">
<stop stop-color="#F9DD06"/>
<stop offset="1" stop-color="#FABD0C"/>
</linearGradient>
<linearGradient id="paint87_linear_500_7468" x1="8.72408" y1="4.30973" x2="23.7202" y2="32.6267" gradientUnits="userSpaceOnUse">
<stop stop-color="#F9DD06"/>
<stop offset="1" stop-color="#FABD0C"/>
</linearGradient>
<linearGradient id="paint88_linear_500_7468" x1="18.8024" y1="6.95102" x2="24.3869" y2="33.6838" gradientUnits="userSpaceOnUse">
<stop stop-color="#F9DD06"/>
<stop offset="1" stop-color="#FABD0C"/>
</linearGradient>
<linearGradient id="paint89_linear_500_7468" x1="19.4098" y1="6.20182" x2="25.0898" y2="33.2621" gradientUnits="userSpaceOnUse">
<stop stop-color="#F9DD06"/>
<stop offset="1" stop-color="#FABD0C"/>
</linearGradient>
<linearGradient id="paint90_linear_500_7468" x1="21.6506" y1="6.42949" x2="26.2919" y2="32.3437" gradientUnits="userSpaceOnUse">
<stop stop-color="#F9DD06"/>
<stop offset="1" stop-color="#FABD0C"/>
</linearGradient>
<linearGradient id="paint91_linear_500_7468" x1="19.2099" y1="4.68822" x2="25.4869" y2="31.951" gradientUnits="userSpaceOnUse">
<stop stop-color="#F9DD06"/>
<stop offset="1" stop-color="#FABD0C"/>
</linearGradient>
<linearGradient id="paint92_linear_500_7468" x1="9.97254" y1="0.489103" x2="27.0504" y2="28.1654" gradientUnits="userSpaceOnUse">
<stop stop-color="#F9DD06"/>
<stop offset="1" stop-color="#FABD0C"/>
</linearGradient>
<linearGradient id="paint93_linear_500_7468" x1="4.95397" y1="-6.84104" x2="34.3384" y2="12.1007" gradientUnits="userSpaceOnUse">
<stop stop-color="#F9DD06"/>
<stop offset="1" stop-color="#FABD0C"/>
</linearGradient>
<linearGradient id="paint94_linear_500_7468" x1="1.79044" y1="-17.0925" x2="30.6539" y2="-10.8476" gradientUnits="userSpaceOnUse">
<stop stop-color="#F9DD06"/>
<stop offset="1" stop-color="#FABD0C"/>
</linearGradient>
<linearGradient id="paint95_linear_500_7468" x1="2.09052" y1="-19.2101" x2="31.2627" y2="-13.3199" gradientUnits="userSpaceOnUse">
<stop stop-color="#F9DD06"/>
<stop offset="1" stop-color="#FABD0C"/>
</linearGradient>
<linearGradient id="paint96_linear_500_7468" x1="7.25172" y1="-7.06694" x2="35.0048" y2="13.4004" gradientUnits="userSpaceOnUse">
<stop stop-color="#F9DD06"/>
<stop offset="1" stop-color="#FABD0C"/>
</linearGradient>
<linearGradient id="paint97_linear_500_7468" x1="13.9652" y1="-1.12073" x2="27.985" y2="26.9741" gradientUnits="userSpaceOnUse">
<stop stop-color="#F9DD06"/>
<stop offset="1" stop-color="#FABD0C"/>
</linearGradient>
<linearGradient id="paint98_linear_500_7468" x1="6.25231" y1="16.7789" x2="8.40934" y2="19.257" gradientUnits="userSpaceOnUse">
<stop stop-color="#939694"/>
<stop offset="0.490476" stop-color="#939694"/>
<stop offset="0.720665" stop-color="#939694"/>
<stop offset="0.914286" stop-color="white"/>
<stop offset="1" stop-color="#F7F5F6"/>
</linearGradient>
<linearGradient id="paint99_linear_500_7468" x1="6.17044" y1="16.85" x2="8.14506" y2="19.1723" gradientUnits="userSpaceOnUse">
<stop stop-color="#939694"/>
<stop offset="0.543141" stop-color="#939694"/>
<stop offset="1" stop-color="#CECCC9"/>
</linearGradient>
<linearGradient id="paint100_linear_500_7468" x1="5.73563" y1="17.2268" x2="6.88928" y2="18.6852" gradientUnits="userSpaceOnUse">
<stop stop-color="white"/>
<stop offset="0.543141" stop-color="white"/>
<stop offset="1" stop-color="#CECCC9"/>
</linearGradient>
</defs>
</svg>
